<svg version="1.1" id="Layer_1" xmlns="http://www.w3.org/2000/svg" xmlns:xlink="http://www.w3.org/1999/xlink" x="0px" y="0px"
	 width="100%" viewBox="0 0 259 194" enable-background="new 0 0 259 194" xml:space="preserve">
<path fill="#FEFEFD" opacity="1.000000" stroke="none" 
	d="
M188.000000,195.000000 
	C125.333336,195.000000 63.166676,195.000000 1.000008,195.000000 
	C1.000005,130.333344 1.000005,65.666679 1.000003,1.000017 
	C87.333321,1.000011 173.666641,1.000011 260.000000,1.000006 
	C260.000000,65.666649 260.000000,130.333298 260.000000,194.999969 
	C236.166672,195.000000 212.333328,195.000000 188.000000,195.000000 
M92.792145,69.082169 
	C93.037186,69.065285 93.282227,69.048409 93.955200,69.053108 
	C94.239113,69.051346 94.522278,69.065109 94.798759,69.778641 
	C94.500542,72.222366 94.202332,74.666092 94.031586,76.065262 
	C92.141899,75.294685 90.716042,74.340729 89.257729,74.288231 
	C88.606277,74.264778 87.889633,76.052208 87.202583,77.017799 
	C88.701889,77.831802 90.250961,79.362923 91.686859,79.263275 
	C93.200462,79.158234 94.558914,77.414650 96.072998,76.538826 
	C97.385834,75.779404 98.980362,74.487038 100.171066,74.740799 
	C102.971291,75.337593 105.604591,76.717590 108.865913,78.001282 
	C106.954453,74.743980 105.556717,72.362114 104.021523,69.549805 
	C104.021523,69.549805 103.937691,69.105782 103.987045,68.365578 
	C105.658241,66.243446 107.329437,64.121315 109.107628,62.273777 
	C109.191978,62.323139 109.276321,62.372501 109.360672,62.421867 
	C109.240173,62.281452 109.119682,62.141037 108.996819,61.245663 
	C107.996956,59.164516 106.997101,57.083374 106.000000,55.000000 
	C106.000000,55.000000 106.002182,54.997173 106.698631,54.870960 
	C108.158600,51.851997 106.819016,49.697250 103.453407,49.319275 
	C100.950752,49.038216 98.482407,48.451591 95.999680,47.406303 
	C95.915207,46.880146 95.830734,46.353985 95.746262,45.827827 
	C95.533417,45.897133 95.320572,45.966442 95.107719,46.035748 
	C95.405472,46.690277 95.703224,47.344810 95.637169,48.517265 
	C95.082306,50.276325 94.527443,52.035385 93.514069,54.065536 
	C93.316116,54.352215 93.118164,54.638893 92.456451,54.950413 
	C92.456451,54.950413 91.999161,55.031517 91.730339,54.482403 
	C90.863632,54.066505 89.996925,53.650608 88.787537,52.670982 
	C88.195297,52.443798 87.603065,52.216614 86.934959,51.290543 
	C85.976326,50.688492 85.080605,49.923656 84.044106,49.523087 
	C82.543037,48.942970 80.940140,48.626358 78.177170,47.866245 
	C78.903099,50.274277 79.630867,52.688393 80.419914,55.305790 
	C78.548485,57.309452 76.442810,59.563911 74.201881,61.963181 
	C75.885620,64.940140 77.490051,67.776886 79.419662,71.188568 
	C79.328079,71.660278 79.004089,73.328964 78.680107,74.997650 
	C80.278526,74.914505 81.983391,75.150772 83.446945,74.662979 
	C85.077309,74.119606 86.488129,72.917519 88.640526,71.897148 
	C89.256111,71.281471 89.871696,70.665794 90.966530,70.032379 
	C91.329979,69.731148 91.693428,69.429909 92.792145,69.082169 
M136.091965,142.260620 
	C136.009460,141.321701 135.926956,140.382782 135.844452,139.443848 
	C135.617859,139.424545 135.391281,139.405228 135.164703,139.385925 
	C135.041656,139.909698 134.918625,140.433456 134.476990,140.947754 
	C134.476990,140.947754 134.158463,140.936844 134.027222,140.372635 
	C133.838913,140.129532 133.650604,139.886429 133.462296,139.643326 
	C133.347107,140.374969 133.231903,141.106598 132.732117,142.357437 
	C131.476883,141.859787 130.096832,141.553909 128.987579,140.831955 
	C123.618835,137.337646 116.130348,137.353241 112.540817,130.926834 
	C110.244850,126.816322 107.682838,127.234451 104.128693,130.366547 
	C95.885559,128.560165 87.642426,126.753784 79.352615,124.937180 
	C77.601906,128.521439 77.686516,130.472565 81.971306,131.086609 
	C86.381172,131.718582 90.689049,133.062210 94.930176,134.741776 
	C91.944992,137.897797 94.588127,139.503906 96.667336,141.356400 
	C97.019539,141.670197 96.896263,142.517639 96.240524,143.046890 
	C91.621155,139.494720 87.828659,142.303879 84.313759,144.922546 
	C81.359909,147.123245 74.465202,145.928207 76.867218,152.463074 
	C72.023994,155.416458 67.487366,158.182861 62.663979,161.587418 
	C61.413719,164.385544 60.163460,167.183670 58.477577,170.317200 
	C58.304790,170.831436 58.132004,171.345657 57.482666,172.088562 
	C57.362385,172.216248 57.242107,172.343933 56.730587,172.542679 
	C56.851143,172.980804 56.971699,173.418930 57.008648,173.938553 
	C57.008648,173.938553 57.124199,173.921814 57.579628,174.617065 
	C58.731033,174.701538 59.882423,174.859406 61.033848,174.859619 
	C83.757278,174.863998 106.480728,174.861740 129.204132,174.828781 
	C133.110397,174.823120 137.016479,174.671127 141.423492,174.685715 
	C141.593582,174.691254 141.763687,174.696808 142.700607,174.948761 
	C143.490585,174.846756 144.280579,174.744766 145.117310,174.819229 
	C145.117310,174.819229 145.008667,174.965942 145.582458,175.575790 
	C146.223770,175.714294 146.864929,175.973145 147.506393,175.973877 
	C169.126816,175.998367 190.747284,176.016159 212.367538,175.953888 
	C213.566483,175.950424 214.763443,175.253693 215.859543,174.682617 
	C215.859543,174.682617 215.923294,174.470230 216.333527,174.613663 
	C216.666962,174.499542 216.799576,174.269440 216.833359,173.288162 
	C216.243698,172.744659 215.654037,172.201172 215.056686,170.945053 
	C213.038239,167.249466 211.019775,163.553894 208.591995,159.330383 
	C202.656677,156.251251 196.721344,153.172104 190.971603,149.389648 
	C191.657242,148.346024 192.342880,147.302399 193.200256,145.997360 
	C188.215179,143.378403 183.528183,140.980362 178.913773,138.449997 
	C177.641479,137.752304 176.585587,136.659958 175.320450,135.661957 
	C173.973663,136.190384 172.122849,136.944855 170.251526,137.644394 
	C167.170395,138.796219 164.075989,139.912445 160.201996,141.035889 
	C157.792389,141.340439 155.382767,141.645004 152.206833,141.973312 
	C149.790344,142.969254 147.373840,143.965195 144.249313,144.980453 
	C142.684036,145.187683 141.118774,145.394913 140.215637,145.514481 
	C138.977112,147.277679 137.979767,148.697556 136.984848,149.314636 
	C136.968445,148.512253 136.952042,147.709885 137.016174,146.210419 
	C136.693802,145.136658 136.371429,144.062881 136.091965,142.260620 
M221.831497,131.668488 
	C221.831497,131.668488 221.607956,131.492371 221.004379,131.154968 
	C220.009705,132.112625 219.015030,133.070282 217.561142,134.466309 
	C215.860199,135.127380 214.159256,135.788437 212.369720,136.483932 
	C213.179153,136.689453 213.970490,136.890366 214.122421,136.928940 
	C212.727310,141.485245 211.395355,145.835327 209.752274,151.201523 
	C213.793686,149.151657 217.403915,148.373398 219.316574,146.140823 
	C223.923477,140.763367 227.735748,134.705124 232.541107,128.772583 
	C234.294769,126.471619 236.048431,124.170647 238.218155,121.296074 
	C240.955093,118.463562 240.459366,115.917542 237.150314,114.197144 
	C233.426331,112.261024 231.879272,114.843277 230.144089,118.056480 
	C228.746140,120.315796 227.348175,122.575111 225.384415,125.028549 
	C224.841354,125.574455 224.298294,126.120361 223.236298,127.043503 
	C222.680695,127.940865 222.125092,128.838226 221.240326,130.459152 
	C221.366882,130.925735 221.493439,131.392319 221.831497,131.668488 
M153.057770,97.307198 
	C152.927750,96.825653 152.797714,96.344116 152.667694,95.862579 
	C152.436249,95.945229 152.204819,96.027878 151.973389,96.110527 
	C152.281952,96.763290 152.590515,97.416054 152.884659,98.723038 
	C153.290588,102.001549 153.696503,105.280060 154.108978,108.611473 
	C157.106567,104.987587 156.631744,100.050537 153.057770,97.307198 
M122.150246,60.959377 
	C121.063095,61.906376 119.975945,62.853374 118.271561,64.283279 
	C115.326881,70.336014 116.986702,74.654480 123.935455,76.996902 
	C125.017601,76.862534 126.099747,76.728165 127.585236,76.697746 
	C127.888115,76.673927 128.117813,76.531677 129.011139,76.280563 
	C130.828598,74.003174 133.815948,71.867615 134.114395,69.406059 
	C134.380310,67.212769 131.671127,64.658775 130.152481,61.660557 
	C128.434174,59.752651 126.715858,57.844742 124.591461,55.427731 
	C123.172958,54.877232 121.754463,54.326729 120.335960,53.776230 
	C120.083916,54.116982 119.831871,54.457733 119.579826,54.798481 
	C120.694908,55.866035 121.809990,56.933590 122.915421,58.736481 
	C122.889709,59.471233 122.863998,60.205990 122.150246,60.959377 
M177.591019,78.744484 
	C177.184280,81.127907 176.777542,83.511330 175.805969,86.392586 
	C175.702087,87.380333 175.598190,88.368080 174.907257,89.683365 
	C174.815384,90.771439 174.723511,91.859512 174.029175,93.205376 
	C174.727997,93.650322 175.426819,94.095268 176.683273,94.904846 
	C178.065201,95.338226 179.447144,95.771599 181.288788,96.834633 
	C181.455322,98.038002 181.621872,99.241371 181.797363,100.509445 
	C186.249725,94.556236 191.377686,100.945229 196.580048,99.434975 
	C197.693451,94.777191 198.885742,89.846558 200.047012,84.908623 
	C200.692123,82.165474 201.285522,79.410164 201.891083,76.131180 
	C201.999466,75.794922 202.107849,75.458664 202.759689,74.723061 
	C202.139236,74.170433 201.518784,73.617805 200.274292,72.985374 
	C199.482437,72.766457 198.690567,72.547546 197.480515,71.725792 
	C191.824951,70.198944 186.169373,68.672096 179.549973,66.885040 
	C179.180145,71.202385 178.882797,74.673607 178.359955,78.265991 
	C178.359955,78.265991 178.185425,78.441193 177.591019,78.744484 
M146.216400,61.592186 
	C146.390884,62.866455 146.102921,64.645477 146.832474,65.313919 
	C148.552902,66.890175 151.050613,69.274002 152.704681,68.912132 
	C155.868317,68.220009 160.662903,67.923470 160.084122,61.670570 
	C163.008408,57.855198 165.752930,53.884277 168.892899,50.255520 
	C176.373459,41.610451 176.838577,38.352013 171.441910,28.176125 
	C168.455795,22.545578 162.893219,18.931988 157.117096,20.287577 
	C148.249130,22.368790 141.770309,28.085796 142.457336,37.656254 
	C142.970947,44.810982 145.479202,51.822521 146.402664,59.091618 
	C146.302429,59.722591 146.202194,60.353565 146.216400,61.592186 
M149.738373,125.953255 
	C154.586975,124.593155 159.435577,123.233047 164.284180,121.872948 
	C164.460526,122.259552 164.636887,122.646156 164.813232,123.032761 
	C163.955307,124.109718 163.097382,125.186684 161.551208,127.127594 
	C164.579346,128.269714 167.137894,129.234726 169.880722,130.269257 
	C169.910736,122.764435 168.594772,121.080391 163.741211,120.428764 
	C161.019470,120.063347 158.425293,118.763145 155.761368,117.923035 
	C155.546097,117.855141 155.235565,118.089302 154.745117,118.262077 
	C154.530716,119.535545 154.298477,120.914986 154.043121,122.431747 
	C150.766510,121.460899 149.307129,122.960541 148.235153,126.062210 
	C146.639969,128.204422 145.044769,130.346619 143.449585,132.488815 
	C143.906235,132.790421 144.362885,133.092026 144.819534,133.393631 
	C146.229797,130.946060 147.640060,128.498489 149.738373,125.953255 
M181.131668,114.667183 
	C180.526093,116.102821 179.920517,117.538460 179.314941,118.974098 
	C180.833038,119.597946 182.351120,120.221794 184.636841,120.923172 
	C187.746887,120.283714 190.856918,119.644257 194.246460,119.588860 
	C195.155762,120.084282 196.065063,120.579697 197.192627,121.410881 
	C197.448257,121.228401 197.703903,121.045929 198.658279,120.800819 
	C200.596710,119.141136 205.200790,118.768715 201.446976,114.558578 
	C203.979202,113.540840 206.561371,113.010742 208.435455,111.563614 
	C209.601227,110.663429 210.382904,108.201164 210.021118,106.773392 
	C209.791885,105.868706 206.903595,104.774742 205.623108,105.156944 
	C201.314697,106.442902 197.192322,108.352165 192.236542,110.006599 
	C188.795364,111.503784 185.354187,113.000969 181.131668,114.667183 
M73.659500,112.883408 
	C76.364342,110.067398 79.069183,107.251381 81.908363,104.295502 
	C80.972603,102.389305 79.532112,99.454941 78.728119,96.307922 
	C80.791954,93.497154 82.855789,90.686386 84.919624,87.875626 
	C84.709785,87.468475 84.499947,87.061325 84.290108,86.654175 
	C76.296768,88.483223 67.538452,88.871964 60.546093,92.585709 
	C54.689873,95.696014 50.896431,102.690193 46.189610,107.964630 
	C46.503178,108.392067 46.816750,108.819496 47.130318,109.246933 
	C49.000908,108.909782 50.871502,108.572639 53.583553,108.309784 
	C54.418392,108.971748 55.700222,109.468521 56.015789,110.322403 
	C58.119320,116.014183 62.261265,115.707855 66.839882,114.214722 
	C68.224251,113.763268 69.535851,113.088661 71.091934,112.467422 
	C71.091934,112.467422 71.299934,112.406593 71.784492,112.750137 
	C72.180054,112.745758 72.575615,112.741386 73.659500,112.883408 
M23.193480,144.763840 
	C24.450788,148.663010 25.708099,152.562164 27.189129,157.059921 
	C30.160744,159.318985 32.830635,162.532166 36.181534,163.591843 
	C40.228168,164.871506 44.959007,166.361923 49.756008,163.106812 
	C55.819939,162.343048 60.492813,157.823334 62.524502,150.686401 
	C62.941879,147.904114 63.359257,145.121826 64.094574,141.703751 
	C63.892456,137.660065 63.690334,133.616364 63.478554,129.379410 
	C61.418682,130.135101 60.065968,130.631378 58.356079,131.104019 
	C58.356079,131.104019 57.998131,131.104980 57.548172,130.608658 
	C55.698055,129.449356 53.847939,128.290070 51.209591,126.877106 
	C48.802071,126.462128 46.394554,126.047157 43.435398,125.117264 
	C32.967785,123.668732 23.090023,134.965027 23.193480,144.763840 
M104.796974,97.705048 
	C102.583351,95.031219 100.534004,92.188606 98.060822,89.781448 
	C97.269501,89.011261 95.356079,89.393951 93.956062,89.249146 
	C94.009415,90.547859 93.556435,92.228874 94.200340,93.081703 
	C97.724899,97.749802 101.431595,102.291176 105.293793,106.684380 
	C106.061485,107.557625 107.779129,107.595757 109.058716,108.018982 
	C109.221596,106.585289 109.961426,104.865356 109.422806,103.779694 
	C108.416519,101.751396 106.668053,100.091316 104.796974,97.705048 
M144.396164,100.047821 
	C145.682693,98.875481 146.969208,97.703133 148.472122,96.333611 
	C141.950989,96.120186 136.867371,103.193146 137.318222,112.704758 
	C138.494446,110.332504 139.670670,107.960251 140.942902,105.394363 
	C141.742859,105.637108 142.719177,105.933357 143.756088,106.247993 
	C143.756088,104.072075 143.756088,102.209801 144.396164,100.047821 
M156.604401,131.808151 
	C157.869568,132.352829 159.134720,132.897491 160.399887,133.442154 
	C160.507217,133.250412 160.614548,133.058670 160.721893,132.866928 
	C158.330872,130.768280 155.939850,128.669632 153.548843,126.570976 
	C153.370895,126.685249 153.192947,126.799522 153.014999,126.913788 
	C154.014328,128.415665 155.013641,129.917526 156.604401,131.808151 
M147.175797,109.840218 
	C148.600113,109.341850 150.024429,108.843491 151.945862,108.171188 
	C149.700668,106.373810 148.381454,105.317711 146.027908,103.433594 
	C146.265915,106.198898 146.407455,107.843506 147.175797,109.840218 
M92.596481,44.358936 
	C91.248505,45.733448 89.900528,47.107956 88.552551,48.482464 
	C89.116646,48.900146 89.680733,49.317829 90.244820,49.735512 
	C91.113785,48.144737 91.982758,46.553963 92.596481,44.358936 
M164.600342,132.043320 
	C164.017410,132.891724 163.434464,133.740128 162.851532,134.588516 
	C163.068695,134.894409 163.285858,135.200302 163.503021,135.506195 
	C164.882156,134.762009 166.261276,134.017822 167.640411,133.273651 
	C166.793030,132.711136 165.945633,132.148636 164.600342,132.043320 
M150.158875,95.966026 
	C150.412598,95.813919 150.800934,95.710129 150.878265,95.494698 
	C150.942368,95.316132 150.639877,95.005981 150.499802,94.754120 
	C150.359619,95.006088 150.219421,95.258049 150.158875,95.966026 
z"/>
<path fill="#DCB93D" opacity="1.000000" stroke="none" 
	d="
M147.099274,58.897820 
	C145.479202,51.822521 142.970947,44.810982 142.457336,37.656254 
	C141.770309,28.085796 148.249130,22.368790 157.117096,20.287577 
	C162.893219,18.931988 168.455795,22.545578 171.441910,28.176125 
	C176.838577,38.352013 176.373459,41.610451 168.892899,50.255520 
	C165.752930,53.884277 163.008408,57.855198 159.858215,62.258034 
	C158.496094,62.584526 157.359909,62.323555 156.405716,61.786205 
	C153.424911,60.639160 150.262100,59.768490 147.099274,58.897820 
M155.145233,44.109116 
	C157.652390,44.623508 160.159561,45.137901 162.666718,45.652298 
	C162.802933,44.898594 162.939133,44.144886 163.075348,43.391182 
	C159.275635,42.583256 155.475922,41.775326 151.676208,40.967400 
	C151.455093,41.502518 151.233994,42.037636 151.012894,42.572754 
	C152.181992,43.164471 153.351089,43.756184 155.145233,44.109116 
z"/>
<path fill="#E0E0DF" opacity="1.000000" stroke="none" 
	d="
M96.992661,143.118546 
	C96.896263,142.517639 97.019539,141.670197 96.667336,141.356400 
	C94.588127,139.503906 91.944992,137.897797 95.368088,134.380829 
	C98.345421,134.635010 100.859344,135.519394 103.433937,135.763153 
	C104.951408,135.906830 107.399727,135.520706 107.977814,134.527756 
	C109.663589,131.632187 106.805542,131.240585 104.946915,130.467880 
	C107.682838,127.234451 110.244850,126.816322 112.540817,130.926834 
	C116.130348,137.353241 123.618835,137.337646 128.987579,140.831955 
	C130.096832,141.553909 131.476883,141.859787 133.147903,142.018616 
	C133.812881,141.472961 134.011139,141.225296 134.158463,140.936844 
	C134.158463,140.936844 134.476990,140.947754 134.698669,141.284973 
	C134.956253,142.071671 134.992142,142.521149 134.925247,143.341293 
	C135.526855,144.777145 136.231247,145.842331 136.935638,146.907501 
	C136.952042,147.709885 136.968445,148.512253 136.953583,150.043579 
	C136.724472,151.653091 136.526627,152.533646 136.247696,153.775162 
	C138.103424,153.775162 139.480408,153.775162 141.028641,153.775162 
	C139.679428,155.703964 138.664902,157.154266 137.650391,158.604584 
	C138.020493,158.925720 138.390594,159.246841 138.760696,159.567978 
	C142.245407,156.650665 145.782913,153.792297 149.166229,150.761780 
	C149.776306,150.215332 149.752136,148.960815 150.283661,148.217880 
	C151.700378,149.937073 152.854248,151.471603 153.689957,153.145966 
	C150.204346,155.445709 145.774429,156.232941 144.789276,161.037369 
	C144.583191,161.085022 144.160721,161.107758 143.808563,161.106155 
	C142.944901,162.000854 142.433380,162.897141 141.666428,163.970001 
	C140.582001,165.044846 139.753021,165.943100 138.559891,166.888336 
	C137.075821,166.352020 135.955902,165.768723 134.877670,164.803741 
	C132.736694,156.846878 125.476913,153.892166 120.464661,148.938904 
	C119.331772,147.819366 116.216431,148.725266 114.015198,148.652115 
	C113.538727,148.636292 113.060699,148.444290 112.597343,148.291183 
	C107.394211,146.571732 102.193802,144.844025 96.992661,143.118546 
z"/>
<path fill="#D0D0D0" opacity="1.000000" stroke="none" 
	d="
M96.616592,143.082718 
	C102.193802,144.844025 107.394211,146.571732 112.597343,148.291183 
	C113.060699,148.444290 113.538727,148.636292 114.015198,148.652115 
	C116.216431,148.725266 119.331772,147.819366 120.464661,148.938904 
	C125.476913,153.892166 132.736694,156.846878 134.543335,164.718307 
	C122.751060,156.998383 110.464149,151.719849 96.249207,155.142395 
	C90.249390,156.586990 84.618874,159.565353 78.478394,162.025528 
	C75.770554,162.499924 73.404816,162.795364 70.648422,163.053955 
	C67.822090,162.327835 65.386414,161.638550 62.950745,160.949265 
	C67.487366,158.182861 72.023994,155.416458 76.867218,152.463074 
	C74.465202,145.928207 81.359909,147.123245 84.313759,144.922546 
	C87.828659,142.303879 91.621155,139.494720 96.616592,143.082718 
z"/>
<path fill="#78CCDE" opacity="1.000000" stroke="none" 
	d="
M49.151596,163.151749 
	C44.959007,166.361923 40.228168,164.871506 36.181534,163.591843 
	C32.830635,162.532166 30.160744,159.318985 27.450600,156.706696 
	C28.973688,156.303894 30.235306,156.254318 31.680952,156.515549 
	C34.957542,159.047424 38.050102,161.268509 42.094379,164.173111 
	C42.094379,160.443176 42.203579,158.326538 42.068684,156.225540 
	C41.868282,153.104294 40.720909,151.108734 36.816097,152.564819 
	C33.934444,152.890961 31.346334,153.413589 28.273525,154.034088 
	C28.273525,150.774063 28.273525,147.906342 28.605106,144.958191 
	C30.908718,142.263855 32.880749,139.649963 34.906559,137.044342 
	C34.960342,137.052612 34.979214,137.159805 35.018414,137.492233 
	C36.039257,140.215332 37.020897,142.606018 38.275345,145.183838 
	C39.611053,146.137573 41.101143,147.798874 41.668674,147.527908 
	C45.879295,145.517578 48.356602,148.011795 51.089081,150.453308 
	C51.802101,151.090393 53.199745,150.961288 55.201431,151.373001 
	C55.201431,148.361099 56.081955,144.185501 55.044025,143.636429 
	C51.216896,141.611862 51.940166,138.183319 51.449387,135.266205 
	C53.208370,135.520142 54.632320,135.709183 55.137547,135.776245 
	C56.344620,133.805130 57.171375,132.455048 57.998131,131.104980 
	C57.998131,131.104980 58.356079,131.104019 58.629997,131.471756 
	C60.528156,135.339508 62.152397,138.839523 63.776638,142.339539 
	C63.359257,145.121826 62.941879,147.904114 61.900784,150.973984 
	C54.415958,152.349884 52.148636,158.122894 49.151596,163.151749 
z"/>
<path fill="#AAA9A9" opacity="1.000000" stroke="none" 
	d="
M209.001312,159.858307 
	C211.019775,163.553894 213.038239,167.249466 215.057434,171.442993 
	C215.058197,171.940933 214.970367,172.209671 214.737885,172.132736 
	C214.505386,172.055801 214.016479,172.085144 213.677231,172.059753 
	C212.884659,172.041946 212.431320,172.049515 211.575226,171.969635 
	C202.781052,171.961029 194.389618,172.039886 185.751083,172.081100 
	C185.503967,172.043442 185.010208,171.965027 184.749695,171.653595 
	C181.665649,171.205429 178.842117,171.068710 176.316071,170.646362 
	C180.650986,170.151291 184.688416,169.941864 188.725845,169.732437 
	C188.713348,169.366821 188.700836,169.001221 188.688324,168.635620 
	C177.537079,168.635620 166.385834,168.635620 155.234589,168.635620 
	C158.498795,169.012009 161.796829,168.832886 165.058701,169.098297 
	C166.403885,169.207764 167.671387,170.272278 168.509521,170.930939 
	C162.720352,171.008255 157.395859,171.057053 151.822479,171.150436 
	C151.373077,171.455597 151.172592,171.716171 150.983902,171.989944 
	C150.995697,172.003128 150.991760,171.968628 150.555115,171.976044 
	C148.082275,171.949799 146.046082,171.916153 144.010101,171.563904 
	C145.340820,170.829590 146.671326,170.413879 148.317535,169.997955 
	C149.427139,169.658325 150.221039,169.318893 151.010834,168.650330 
	C151.005783,167.882156 151.004852,167.443115 151.268341,166.976929 
	C151.739182,166.761185 151.945572,166.572586 152.151978,166.384003 
	C151.435471,166.254791 150.718948,166.125565 150.046692,165.670868 
	C151.061264,164.574265 152.031616,163.803116 153.451569,163.022369 
	C162.598190,162.693253 171.295197,162.373764 180.182587,162.378845 
	C187.717300,166.298584 192.256439,166.731415 197.279556,164.064407 
	C194.645615,163.316040 192.324326,162.656494 190.003784,161.746048 
	C190.003616,161.327866 190.002731,161.160568 190.001434,160.658142 
	C190.002136,159.875916 190.003235,159.428833 190.386169,158.992584 
	C192.608871,159.718307 194.446915,160.440521 196.291107,161.146713 
	C200.742462,162.851181 205.161423,164.200821 209.001312,159.858307 
z"/>
<path fill="#3C5673" opacity="1.000000" stroke="none" 
	d="
M52.742092,108.235489 
	C50.871502,108.572639 49.000908,108.909782 47.130318,109.246933 
	C46.816750,108.819496 46.503178,108.392067 46.189610,107.964630 
	C50.896431,102.690193 54.689873,95.696014 60.546093,92.585709 
	C67.538452,88.871964 76.296768,88.483223 84.290108,86.654175 
	C84.499947,87.061325 84.709785,87.468475 84.919624,87.875626 
	C82.855789,90.686386 80.791954,93.497154 78.246910,96.183929 
	C74.501022,93.890991 73.092339,94.930786 72.296638,98.642502 
	C71.813919,100.894264 70.139046,102.890450 68.575417,104.998528 
	C62.713879,105.738403 57.276676,106.481201 51.839470,107.223999 
	C52.004650,107.471443 52.153782,107.732063 52.341560,107.960960 
	C52.440132,108.081131 52.606396,108.145775 52.742092,108.235489 
z"/>
<path fill="#E0E0DF" opacity="1.000000" stroke="none" 
	d="
M160.987167,141.043686 
	C164.075989,139.912445 167.170395,138.796219 170.251526,137.644394 
	C172.122849,136.944855 173.973663,136.190384 175.320450,135.661957 
	C176.585587,136.659958 177.641479,137.752304 178.913773,138.449997 
	C183.528183,140.980362 188.215179,143.378403 193.200256,145.997360 
	C192.342880,147.302399 191.657242,148.346024 190.468536,149.718109 
	C180.310501,150.365692 170.655563,150.684799 160.749207,150.728119 
	C158.842606,150.133087 157.187424,149.813858 156.279526,149.638763 
	C157.912811,146.656754 159.449982,143.850220 160.987167,141.043686 
z"/>
<path fill="#D0D0D0" opacity="1.000000" stroke="none" 
	d="
M161.000610,151.003906 
	C170.655563,150.684799 180.310501,150.365692 190.375732,150.069763 
	C196.721344,153.172104 202.656677,156.251251 208.796661,159.594345 
	C205.161423,164.200821 200.742462,162.851181 196.291107,161.146713 
	C194.446915,160.440521 192.608871,159.718307 190.171600,158.722076 
	C188.040497,157.982971 186.505844,157.525177 184.642090,157.044098 
	C183.872894,157.025406 183.432800,157.030029 182.752533,156.741821 
	C176.677277,155.976379 170.842194,155.503769 164.610580,155.019897 
	C163.157639,155.042953 162.101212,155.077240 160.668472,155.107666 
	C157.859039,156.062057 155.425934,157.020325 152.668610,158.019501 
	C151.229172,158.705719 150.113968,159.351028 148.651367,160.015503 
	C147.201096,160.353012 146.098221,160.671371 144.995346,160.989716 
	C145.774429,156.232941 150.204346,155.445709 154.093811,153.145203 
	C156.877396,152.337677 158.939011,151.670792 161.000610,151.003906 
z"/>
<path fill="#798939" opacity="1.000000" stroke="none" 
	d="
M51.114349,135.201309 
	C51.940166,138.183319 51.216896,141.611862 55.044025,143.636429 
	C56.081955,144.185501 55.201431,148.361099 55.201431,151.373001 
	C53.199745,150.961288 51.802101,151.090393 51.089081,150.453308 
	C48.356602,148.011795 45.879295,145.517578 41.668674,147.527908 
	C41.101143,147.798874 39.611053,146.137573 38.261658,144.778336 
	C36.976509,141.843719 35.977859,139.501755 34.979214,137.159805 
	C34.979214,137.159805 34.960342,137.052612 35.016808,136.691101 
	C35.907475,130.983063 41.252666,129.395370 43.987034,125.632187 
	C46.394554,126.047157 48.802071,126.462128 51.635921,127.321594 
	C52.721333,132.420959 47.542747,129.454819 46.522163,132.090546 
	C48.036255,133.116196 49.575302,134.158752 51.114349,135.201309 
z"/>
<path fill="#A7A8A9" opacity="1.000000" stroke="none" 
	d="
M62.807358,161.268341 
	C65.386414,161.638550 67.822090,162.327835 70.648277,163.409790 
	C72.232086,164.212372 73.561790,165.188431 74.596283,164.939194 
	C80.769157,163.451920 86.873924,161.681900 93.001282,160.340637 
	C93.001823,161.119995 93.002625,161.565460 92.754066,162.287964 
	C89.018974,163.497849 85.533241,164.430695 82.047508,165.363541 
	C82.095810,165.578903 82.144119,165.794266 82.192421,166.009628 
	C89.129623,165.022598 96.066826,164.035568 103.037918,163.385193 
	C103.716217,165.126190 104.360619,166.530502 104.564888,167.954910 
	C101.795395,167.974991 99.466042,167.974991 97.136681,167.974991 
	C97.146423,168.321243 97.156174,168.667511 97.165916,169.013763 
	C105.112602,169.013763 113.059288,169.013763 121.004486,169.259552 
	C121.002998,169.505356 121.000305,169.996948 120.531631,169.998566 
	C99.679703,169.994064 79.296448,169.987930 58.913200,169.981796 
	C60.163460,167.183670 61.413719,164.385544 62.807358,161.268341 
z"/>
<path fill="#83CCC6" opacity="1.000000" stroke="none" 
	d="
M180.829071,96.204971 
	C179.447144,95.771599 178.065201,95.338226 176.334595,94.501511 
	C175.534500,93.714645 175.083084,93.331116 174.631653,92.947586 
	C174.723511,91.859512 174.815384,90.771439 175.485886,89.643845 
	C178.716354,90.737709 179.924713,89.556526 180.511429,86.960724 
	C180.821228,86.261154 180.885162,85.585205 180.964600,84.515320 
	C181.251038,82.854774 181.528961,81.589630 181.791458,80.321281 
	C182.474518,77.020714 180.856888,77.098824 178.585449,78.144821 
	C178.882797,74.673607 179.180145,71.202385 179.549973,66.885040 
	C186.169373,68.672096 191.824951,70.198944 197.305801,72.042969 
	C195.421387,72.587685 193.711700,72.815224 191.598724,72.974167 
	C187.507584,72.441551 183.819733,71.977539 180.131866,71.513535 
	C179.997711,72.201706 179.863556,72.889885 179.729385,73.578056 
	C181.483887,74.335403 183.238373,75.092751 184.969055,76.221130 
	C185.917694,78.098663 186.890167,79.605148 187.548950,81.095398 
	C186.697189,81.338371 186.159073,81.597588 185.620972,81.856804 
	C186.394669,82.204758 187.168365,82.552711 187.980255,83.170898 
	C188.669357,82.620003 189.320267,81.798874 190.000641,80.947052 
	C190.030121,80.916351 190.098541,80.865700 190.338470,80.914490 
	C190.578400,80.963287 191.062531,81.047676 191.216522,81.300949 
	C191.940857,81.675247 192.511230,81.796265 193.445786,81.932419 
	C194.538528,81.933540 195.267075,81.919533 196.153198,82.263626 
	C196.544006,84.411873 196.777222,86.202026 196.664246,87.995270 
	C195.556198,88.977028 194.794342,89.955688 194.006058,91.196182 
	C193.856262,91.701714 193.732880,91.945412 193.609497,92.189110 
	C193.399765,91.763077 193.190033,91.337044 192.984818,90.546486 
	C192.788269,89.255127 192.587204,88.328300 192.386124,87.401466 
	C192.062332,87.421585 191.738525,87.441696 191.414734,87.461807 
	C191.298080,88.597992 191.181427,89.734169 190.688278,90.900589 
	C188.703049,91.393387 187.094299,91.855957 185.338104,92.360916 
	C185.230621,91.371460 185.129593,90.441589 184.947891,88.768997 
	C183.309509,91.726891 182.069290,93.965935 180.829071,96.204971 
M184.160370,85.945465 
	C184.413757,85.794472 184.796524,85.693001 184.879318,85.476700 
	C184.944733,85.305840 184.641357,84.993805 184.501740,84.744461 
	C184.361496,84.994148 184.221252,85.243843 184.160370,85.945465 
M193.796204,83.230568 
	C193.860809,83.424438 193.925415,83.618317 193.990005,83.812180 
	C194.052750,83.617325 194.115479,83.422462 193.796204,83.230568 
z"/>
<path fill="#D4B34A" opacity="1.000000" stroke="none" 
	d="
M221.569489,129.735580 
	C222.125092,128.838226 222.680695,127.940865 223.679504,127.135277 
	C225.121399,126.764992 226.120056,126.302933 227.471649,125.868103 
	C229.172562,126.904037 230.520538,127.912743 231.868500,128.921448 
	C227.735748,134.705124 223.923477,140.763367 219.316574,146.140823 
	C217.403915,148.373398 213.793686,149.151657 209.752274,151.201523 
	C211.395355,145.835327 212.727310,141.485245 214.122421,136.928940 
	C213.970490,136.890366 213.179153,136.689453 212.369720,136.483932 
	C214.159256,135.788437 215.860199,135.127380 217.848663,134.559418 
	C218.752594,135.107941 219.368988,135.563354 220.044510,136.158905 
	C220.195404,136.346313 220.287170,136.393555 220.378952,136.440796 
	C220.258942,136.288895 220.138947,136.136993 220.075409,135.639435 
	C220.623901,134.026642 221.115936,132.759506 221.607956,131.492371 
	C221.607956,131.492371 221.831497,131.668488 222.051514,131.678253 
	C222.037506,131.037216 221.803497,130.386398 221.569489,129.735580 
z"/>
<path fill="#AEC8CA" opacity="1.000000" stroke="none" 
	d="
M192.980286,90.911018 
	C193.190033,91.337044 193.399765,91.763077 193.609497,92.189110 
	C193.732880,91.945412 193.856262,91.701714 194.335403,91.195374 
	C195.464264,89.952553 196.237366,88.972366 197.010452,87.992172 
	C196.777222,86.202026 196.544006,84.411873 196.106598,81.932030 
	C194.967239,80.827408 194.032059,80.412476 192.759811,80.005234 
	C191.647995,80.297173 190.873276,80.581436 190.098541,80.865700 
	C190.098541,80.865700 190.030121,80.916351 189.657196,80.954231 
	C188.825928,81.023323 188.367584,81.054535 187.897247,81.084335 
	C187.885239,81.082916 187.862625,81.111641 187.862625,81.111641 
	C186.890167,79.605148 185.917694,78.098663 185.354279,76.278275 
	C187.041351,76.076180 188.319366,76.187981 189.888062,76.547775 
	C194.092880,77.298523 198.044922,81.079903 201.902222,76.660332 
	C201.285522,79.410164 200.692123,82.165474 200.047012,84.908623 
	C198.885742,89.846558 197.693451,94.777191 196.580048,99.434975 
	C191.377686,100.945229 186.249725,94.556236 181.797363,100.509445 
	C181.621872,99.241371 181.455322,98.038002 181.058929,96.519806 
	C182.069290,93.965935 183.309509,91.726891 184.947891,88.768997 
	C185.129593,90.441589 185.230621,91.371460 185.338104,92.360916 
	C187.094299,91.855957 188.703049,91.393387 191.006287,90.935684 
	C192.127274,90.930695 192.553772,90.920853 192.980286,90.911018 
z"/>
<path fill="#F3F3F3" opacity="1.000000" stroke="none" 
	d="
M87.994514,72.002167 
	C86.488129,72.917519 85.077309,74.119606 83.446945,74.662979 
	C81.983391,75.150772 80.278526,74.914505 78.680099,74.997650 
	C79.004089,73.328964 79.328079,71.660278 79.419662,71.188568 
	C77.490051,67.776886 75.885620,64.940140 74.201881,61.963181 
	C76.442810,59.563911 78.548485,57.309452 80.419914,55.305790 
	C79.630867,52.688393 78.903099,50.274277 78.177170,47.866245 
	C80.940140,48.626358 82.543037,48.942970 84.044106,49.523087 
	C85.080605,49.923656 85.976326,50.688492 86.966934,51.645866 
	C86.998917,52.001186 86.989792,52.010880 86.590172,52.011963 
	C84.858597,52.168652 83.526649,52.324261 82.132454,52.487137 
	C83.238541,55.235424 84.106750,57.392666 85.015076,59.902908 
	C85.410477,60.519840 85.765762,60.783772 86.060699,61.361481 
	C86.030396,62.100243 86.060448,62.525234 85.887619,62.969593 
	C85.671051,63.175411 85.657356,63.361862 85.643669,63.548313 
	C85.779709,63.331764 85.915756,63.115215 86.327118,62.941689 
	C86.818146,63.284058 87.033859,63.583408 87.230484,64.130943 
	C87.290062,64.730949 87.494659,64.978836 87.875465,65.337891 
	C87.925743,65.552986 87.911995,65.994553 87.637009,66.027664 
	C87.572853,68.041237 87.783684,70.021706 87.994514,72.002167 
M83.685188,72.519127 
	C84.024605,71.972809 84.364021,71.426491 84.703438,70.880173 
	C84.428513,70.745644 84.153587,70.611122 83.878662,70.476601 
	C83.672569,71.012009 83.466476,71.547417 83.685188,72.519127 
z"/>
<path fill="#DCA829" opacity="1.000000" stroke="none" 
	d="
M104.537804,130.417206 
	C106.805542,131.240585 109.663589,131.632187 107.977814,134.527756 
	C107.399727,135.520706 104.951408,135.906830 103.433937,135.763153 
	C100.859344,135.519394 98.345421,134.635010 95.423775,134.057159 
	C90.689049,133.062210 86.381172,131.718582 81.971306,131.086609 
	C77.686516,130.472565 77.601906,128.521439 79.352615,124.937180 
	C87.642426,126.753784 95.885559,128.560165 104.537804,130.417206 
z"/>
<path fill="#F3F3F3" opacity="1.000000" stroke="none" 
	d="
M105.997238,55.002228 
	C106.997101,57.083374 107.996956,59.164516 108.998413,61.622833 
	C109.000000,62.000000 109.000633,61.999184 109.000641,61.999184 
	C107.329437,64.121315 105.658241,66.243446 103.654572,68.557678 
	C102.393806,66.088959 100.501167,63.333988 100.749741,60.788074 
	C101.188087,56.298393 99.570724,56.769276 96.577103,58.115303 
	C96.405296,58.098476 96.063805,58.047585 95.696312,57.980492 
	C94.585213,57.938614 93.841606,57.963833 93.225052,57.705696 
	C93.494034,56.619213 93.635971,55.816078 94.026123,54.952820 
	C94.173752,54.526615 94.073166,54.160530 93.972588,53.794449 
	C94.527443,52.035385 95.082306,50.276325 95.818588,48.258633 
	C96.000000,48.000000 95.998779,48.001068 95.998779,48.001068 
	C98.482407,48.451591 100.950752,49.038216 103.453407,49.319275 
	C106.819016,49.697250 108.158600,51.851997 106.295990,54.796539 
	C105.807014,54.674046 105.720695,54.625980 105.634377,54.577911 
	C105.755325,54.719353 105.876282,54.860790 105.997238,55.002228 
M106.585541,59.518772 
	C106.585541,59.518772 106.478424,59.585861 106.585541,59.518772 
M102.413193,57.480705 
	C102.413193,57.480705 102.522636,57.416134 102.413193,57.480705 
z"/>
<path fill="#7ABEC6" opacity="1.000000" stroke="none" 
	d="
M43.711216,125.374725 
	C41.252666,129.395370 35.907475,130.983063 34.963028,136.682831 
	C32.880749,139.649963 30.908718,142.263855 28.536100,144.630676 
	C26.906662,140.325836 25.009022,143.718536 23.394426,143.958038 
	C23.090023,134.965027 32.967785,123.668732 43.711216,125.374725 
z"/>
<path fill="#38B1B3" opacity="1.000000" stroke="none" 
	d="
M211.977997,172.057083 
	C212.431320,172.049515 212.884659,172.041946 213.753693,172.209045 
	C214.169418,172.383728 214.602585,172.520157 214.602585,172.520157 
	C214.602585,172.520157 214.970367,172.209671 214.970367,172.209671 
	C214.970367,172.209671 215.058197,171.940933 215.061279,171.799301 
	C215.654037,172.201172 216.243698,172.744659 216.621735,173.655838 
	C216.192932,174.112610 216.030655,174.261505 215.923294,174.470230 
	C215.923294,174.470230 215.859543,174.682617 215.552933,174.708160 
	C214.517746,174.743637 213.789169,174.753555 212.950684,174.625214 
	C212.539551,174.567520 212.238312,174.648087 211.625671,174.735565 
	C210.899368,174.727951 210.484482,174.713409 209.951782,174.566986 
	C209.532501,174.526093 209.231018,174.617065 208.466522,174.732941 
	C187.005234,174.827209 166.006958,174.896576 145.008667,174.965942 
	C145.008667,174.965942 145.117310,174.819229 144.877014,174.547455 
	C144.073547,174.205994 143.510391,174.136307 143.206650,173.767883 
	C145.974640,172.968964 148.483200,172.468796 150.991760,171.968628 
	C150.991760,171.968628 150.995697,172.003128 151.235855,172.003357 
	C151.644119,172.003616 151.812210,172.003616 152.243774,172.042847 
	C152.683090,172.106720 152.858948,172.131393 153.348587,172.416168 
	C161.436218,172.489441 169.210098,172.302612 177.428284,172.081726 
	C180.251816,172.020111 182.631012,171.992569 185.010208,171.965027 
	C185.010208,171.965027 185.503967,172.043442 186.065414,172.347351 
	C195.077240,172.453186 203.527618,172.255127 211.977997,172.057083 
z"/>
<path fill="#E4CDC6" opacity="1.000000" stroke="none" 
	d="
M196.974365,121.075111 
	C196.065063,120.579697 195.155762,120.084282 194.398285,119.169861 
	C195.377563,117.898315 196.205002,117.045769 197.026169,115.801819 
	C196.951904,114.153259 196.883926,112.896103 196.815948,111.638939 
	C196.629211,111.661926 196.442490,111.684921 196.255753,111.707909 
	C196.131668,112.143303 196.007599,112.578697 195.598206,112.869911 
	C194.541534,111.824814 193.770157,110.923897 192.998779,110.022972 
	C197.192322,108.352165 201.314697,106.442902 205.623108,105.156944 
	C206.903595,104.774742 209.791885,105.868706 210.021118,106.773392 
	C210.382904,108.201164 209.601227,110.663429 208.435455,111.563614 
	C206.561371,113.010742 203.979202,113.540840 201.446976,114.558578 
	C205.200790,118.768715 200.596710,119.141136 198.203064,120.685822 
	C197.490021,120.738922 197.232193,120.907021 196.974365,121.075111 
M198.512329,116.460342 
	C198.512329,116.460342 198.535126,116.514481 198.512329,116.460342 
z"/>
<path fill="#32455B" opacity="1.000000" stroke="none" 
	d="
M53.162823,108.272636 
	C52.606396,108.145775 52.440132,108.081131 52.341560,107.960960 
	C52.153782,107.732063 52.004650,107.471443 51.839470,107.223999 
	C57.276676,106.481201 62.713879,105.738403 68.622025,105.325241 
	C70.690437,107.681038 72.971977,109.528961 70.880783,112.516258 
	C69.535851,113.088661 68.224251,113.763268 66.839882,114.214722 
	C62.261265,115.707855 58.119320,116.014183 56.015789,110.322403 
	C55.700222,109.468521 54.418392,108.971748 53.162823,108.272636 
z"/>
<path fill="#2F3D48" opacity="1.000000" stroke="none" 
	d="
M70.986359,112.491837 
	C72.971977,109.528961 70.690437,107.681038 69.046356,105.328171 
	C70.139046,102.890450 71.813919,100.894264 72.296638,98.642502 
	C73.092339,94.930786 74.501022,93.890991 77.928658,96.290268 
	C79.532112,99.454941 80.972603,102.389305 81.908363,104.295502 
	C79.069183,107.251381 76.364342,110.067398 73.081406,112.607773 
	C72.102180,112.356956 71.701057,112.381775 71.299934,112.406593 
	C71.299934,112.406593 71.091934,112.467422 70.986359,112.491837 
z"/>
<path fill="#DA5541" opacity="1.000000" stroke="none" 
	d="
M105.012680,97.991539 
	C106.668053,100.091316 108.416519,101.751396 109.422806,103.779694 
	C109.961426,104.865356 109.221596,106.585289 109.058716,108.018982 
	C107.779129,107.595757 106.061485,107.557625 105.293793,106.684380 
	C101.431595,102.291176 97.724899,97.749802 94.200340,93.081703 
	C93.556435,92.228874 94.009415,90.547859 93.956062,89.249146 
	C95.356079,89.393951 97.269501,89.011261 98.060822,89.781448 
	C100.534004,92.188606 102.583351,95.031219 105.012680,97.991539 
z"/>
<path fill="#B4A6A2" opacity="1.000000" stroke="none" 
	d="
M58.695389,170.149506 
	C79.296448,169.987930 99.679703,169.994064 120.975098,169.999405 
	C124.253426,169.993011 126.619606,169.987411 128.992950,169.990753 
	C129.000092,169.999710 129.017975,170.013885 129.013916,170.329559 
	C129.011978,171.065826 129.014069,171.486404 128.640747,171.956589 
	C127.509590,172.043350 126.753853,172.080505 125.601250,172.057495 
	C124.137314,172.038422 123.070251,172.079498 121.757591,172.079834 
	C121.511993,172.039108 121.021545,171.953232 120.758026,171.620178 
	C109.674690,171.212234 98.854866,171.137344 87.787102,171.101578 
	C87.338432,171.397751 87.137711,171.654785 86.702484,171.969849 
	C86.467979,172.027878 85.992546,172.113922 85.528786,172.054169 
	C78.373978,172.025818 71.682930,172.057236 64.577454,172.046951 
	C62.774265,172.010864 61.385513,172.016479 59.743679,171.988037 
	C59.322903,171.983353 59.155209,172.012680 58.726677,172.017731 
	C58.296970,171.948929 58.128094,171.904419 57.959217,171.859894 
	C58.132004,171.345657 58.304790,170.831436 58.695389,170.149506 
z"/>
<path fill="#2AB4BD" opacity="1.000000" stroke="none" 
	d="
M125.998123,172.117661 
	C126.753853,172.080505 127.509590,172.043350 128.618713,172.014450 
	C128.972092,172.022720 129.001846,172.142410 129.160934,172.335266 
	C129.870209,172.376144 130.420395,172.224167 131.298782,172.070801 
	C132.055435,172.159058 132.483902,172.248672 132.811523,172.709717 
	C131.320328,173.373764 129.930359,173.919067 128.539490,173.921402 
	C104.734459,173.961380 80.929314,173.934219 57.124199,173.921814 
	C57.124199,173.921814 57.008648,173.938553 57.066349,173.666992 
	C57.145584,173.087433 57.144844,172.779510 57.121826,172.471634 
	C57.242107,172.343933 57.362385,172.216248 57.720943,171.974228 
	C58.128094,171.904419 58.296970,171.948929 58.821106,172.175049 
	C59.449837,172.245132 59.723297,172.133606 59.996758,172.022079 
	C61.385513,172.016479 62.774265,172.010864 64.894142,172.310944 
	C72.414360,172.449066 79.203453,172.281494 85.992546,172.113922 
	C85.992546,172.113922 86.467979,172.027878 86.960411,171.993652 
	C87.625298,171.963577 87.797752,171.967728 88.250862,172.019073 
	C88.717812,172.102173 88.904106,172.138092 89.402191,172.423706 
	C94.770317,172.528946 99.826660,172.384506 105.353683,172.182053 
	C110.890099,172.067108 115.955818,172.010178 121.021545,171.953232 
	C121.021545,171.953232 121.511993,172.039108 121.986969,172.303558 
	C123.640671,172.417908 124.819397,172.267792 125.998123,172.117661 
z"/>
<path fill="#DADAD9" opacity="1.000000" stroke="none" 
	d="
M150.020798,148.033203 
	C149.752136,148.960815 149.776306,150.215332 149.166229,150.761780 
	C145.782913,153.792297 142.245407,156.650665 138.760696,159.567978 
	C138.390594,159.246841 138.020493,158.925720 137.650391,158.604584 
	C138.664902,157.154266 139.679428,155.703964 141.028641,153.775162 
	C139.480408,153.775162 138.103424,153.775162 136.247696,153.775162 
	C136.526627,152.533646 136.724472,151.653091 136.952362,150.444977 
	C137.979767,148.697556 138.977112,147.277679 140.215637,145.514481 
	C141.118774,145.394913 142.684036,145.187683 144.890320,145.117920 
	C147.011124,146.165070 148.490891,147.074738 149.984940,147.994415 
	C149.999207,148.004440 150.020798,148.033203 150.020798,148.033203 
z"/>
<path fill="#5AB4B8" opacity="1.000000" stroke="none" 
	d="
M57.351913,174.269440 
	C80.929314,173.934219 104.734459,173.961380 128.539490,173.921402 
	C129.930359,173.919067 131.320328,173.373764 133.147797,172.587769 
	C135.028366,171.433640 136.471863,170.772873 137.947174,170.397552 
	C137.995178,171.064575 138.011353,171.446152 138.036011,172.152863 
	C139.003860,173.180923 139.963257,173.883835 140.922638,174.586731 
	C137.016479,174.671127 133.110397,174.823120 129.204132,174.828781 
	C106.480728,174.861740 83.757278,174.863998 61.033848,174.859619 
	C59.882423,174.859406 58.731033,174.701538 57.351913,174.269440 
z"/>
<path fill="#F3F3F3" opacity="1.000000" stroke="none" 
	d="
M104.158981,69.980240 
	C105.556717,72.362114 106.954453,74.743980 108.865913,78.001282 
	C105.604591,76.717590 102.971291,75.337593 100.171066,74.740799 
	C98.980362,74.487038 97.385834,75.779404 96.072998,76.538826 
	C94.558914,77.414650 93.200462,79.158234 91.686859,79.263275 
	C90.250961,79.362923 88.701889,77.831802 87.202583,77.017799 
	C87.889633,76.052208 88.606277,74.264778 89.257729,74.288231 
	C90.716042,74.340729 92.141899,75.294685 94.031586,76.065262 
	C94.202332,74.666092 94.500542,72.222366 94.954071,69.181610 
	C95.405624,68.081924 95.701881,67.579262 96.333542,67.026154 
	C97.117760,67.031456 97.566566,67.087219 98.148529,67.405205 
	C98.882950,68.435799 99.484215,69.204178 99.786636,70.014450 
	C99.396698,70.700775 99.305603,71.345207 99.214508,71.989632 
	C99.820007,71.626198 100.425507,71.262772 101.381012,70.928589 
	C102.540344,70.631981 103.349663,70.306107 104.158981,69.980240 
z"/>
<path fill="#E2D6CE" opacity="1.000000" stroke="none" 
	d="
M192.617661,110.014786 
	C193.770157,110.923897 194.541534,111.824814 195.706177,113.208496 
	C196.410446,114.525253 196.721451,115.359238 197.032440,116.193222 
	C196.205002,117.045769 195.377563,117.898315 194.258545,118.877838 
	C190.856918,119.644257 187.746887,120.283714 184.334152,120.554077 
	C185.332230,117.541756 184.419876,115.722961 181.913010,114.498161 
	C185.354187,113.000969 188.795364,111.503784 192.617661,110.014786 
z"/>
<path fill="#F7F7F7" opacity="1.000000" stroke="none" 
	d="
M148.942764,125.943581 
	C149.307129,122.960541 150.766510,121.460899 154.043121,122.431747 
	C154.298477,120.914986 154.530716,119.535545 154.745117,118.262077 
	C155.235565,118.089302 155.546097,117.855141 155.761368,117.923035 
	C158.425293,118.763145 161.019470,120.063347 163.741211,120.428764 
	C168.594772,121.080391 169.910736,122.764435 169.880722,130.269257 
	C167.137894,129.234726 164.579346,128.269714 161.551208,127.127594 
	C163.097382,125.186684 163.955307,124.109718 164.813232,123.032761 
	C164.636887,122.646156 164.460526,122.259552 164.284180,121.872948 
	C159.435577,123.233047 154.586975,124.593155 149.367584,125.975128 
	C148.996780,125.996994 148.942764,125.943581 148.942764,125.943581 
z"/>
<path fill="#DADAD9" opacity="1.000000" stroke="none" 
	d="
M160.749207,150.728119 
	C158.939011,151.670792 156.877396,152.337677 154.411957,153.005341 
	C152.854248,151.471603 151.700378,149.937073 150.283661,148.217880 
	C150.020798,148.033203 149.999207,148.004440 149.863815,147.683609 
	C150.109512,146.578979 150.432465,145.759567 150.885605,145.019897 
	C151.531403,143.965775 152.272675,142.970169 152.973160,141.949570 
	C155.382767,141.645004 157.792389,141.340439 160.594574,141.039795 
	C159.449982,143.850220 157.912811,146.656754 156.279526,149.638763 
	C157.187424,149.813858 158.842606,150.133087 160.749207,150.728119 
z"/>
<path fill="#626167" opacity="1.000000" stroke="none" 
	d="
M156.223709,62.062584 
	C157.359909,62.323555 158.496094,62.584526 159.754822,62.604088 
	C160.662903,67.923470 155.868317,68.220009 152.704681,68.912132 
	C151.050613,69.274002 148.552902,66.890175 146.832474,65.313919 
	C146.102921,64.645477 146.390884,62.866455 146.573212,61.290245 
	C150.027908,61.346397 153.125809,61.704491 156.223709,62.062584 
z"/>
<path fill="#788D44" opacity="1.000000" stroke="none" 
	d="
M23.293953,144.360931 
	C25.009022,143.718536 26.906662,140.325836 28.204517,144.711121 
	C28.273525,147.906342 28.273525,150.774063 28.273525,154.034088 
	C31.346334,153.413589 33.934444,152.890961 36.596321,152.867233 
	C34.945702,154.312332 33.221313,155.258545 31.496923,156.204758 
	C30.235306,156.254318 28.973688,156.303894 27.338739,156.407410 
	C25.708099,152.562164 24.450788,148.663010 23.293953,144.360931 
z"/>
<path fill="#F7F7F7" opacity="1.000000" stroke="none" 
	d="
M213.060593,174.763474 
	C213.789169,174.753555 214.517746,174.743637 215.603821,174.806686 
	C214.763443,175.253693 213.566483,175.950424 212.367538,175.953888 
	C190.747284,176.016159 169.126816,175.998367 147.506393,175.973877 
	C146.864929,175.973145 146.223770,175.714294 145.295563,175.270874 
	C166.006958,174.896576 187.005234,174.827209 208.752197,174.811920 
	C209.690430,174.810303 209.880005,174.754578 210.069580,174.698868 
	C210.484482,174.713409 210.899368,174.727951 211.903900,174.829651 
	C212.682541,174.865707 212.871567,174.814590 213.060593,174.763474 
z"/>
<path fill="#CEC7C1" opacity="1.000000" stroke="none" 
	d="
M232.204803,128.847015 
	C230.520538,127.912743 229.172562,126.904037 227.324387,125.651817 
	C226.532867,125.217010 226.241547,125.025719 225.950226,124.834427 
	C227.348175,122.575111 228.746140,120.315796 230.722504,118.197678 
	C233.467972,119.515808 235.635025,120.692741 237.802078,121.869675 
	C236.048431,124.170647 234.294769,126.471619 232.204803,128.847015 
z"/>
<path fill="#788D44" opacity="1.000000" stroke="none" 
	d="
M49.453804,163.129272 
	C52.148636,158.122894 54.415958,152.349884 61.639511,151.261902 
	C60.492813,157.823334 55.819939,162.343048 49.453804,163.129272 
z"/>
<path fill="#F3F3F3" opacity="1.000000" stroke="none" 
	d="
M144.076126,100.197678 
	C143.756088,102.209801 143.756088,104.072075 143.756088,106.247993 
	C142.719177,105.933357 141.742859,105.637108 140.942902,105.394363 
	C139.670670,107.960251 138.494446,110.332504 137.318222,112.704758 
	C136.867371,103.193146 141.950989,96.120186 148.472122,96.333611 
	C146.969208,97.703133 145.682693,98.875481 144.076126,100.197678 
z"/>
<path fill="#AEC8CA" opacity="1.000000" stroke="none" 
	d="
M123.120285,76.898499 
	C116.986702,74.654480 115.326881,70.336014 118.869102,64.211273 
	C120.655258,64.086647 121.843872,64.034012 123.344124,64.034058 
	C123.860069,64.138260 124.064384,64.189781 124.191391,64.605621 
	C123.363205,66.888390 122.219971,68.759697 121.982079,70.739777 
	C121.781548,72.408897 122.632553,74.204353 123.049202,76.181946 
	C123.080299,76.419998 123.120285,76.898499 123.120285,76.898499 
z"/>
<path fill="#4BA4A3" opacity="1.000000" stroke="none" 
	d="
M123.527870,76.947701 
	C123.120285,76.898499 123.080299,76.419998 123.308243,75.916306 
	C124.819923,75.178574 126.165932,75.116592 127.375877,74.678680 
	C131.209549,73.291138 132.091095,66.841553 129.073166,63.603638 
	C129.584320,62.943237 129.929626,62.603600 130.274933,62.263962 
	C131.671127,64.658775 134.380310,67.212769 134.114395,69.406059 
	C133.815948,71.867615 130.828598,74.003174 128.437317,76.227890 
	C127.555374,76.183121 127.328171,76.322647 127.181892,76.593796 
	C126.099747,76.728165 125.017601,76.862534 123.527870,76.947701 
z"/>
<path fill="#EE786E" opacity="1.000000" stroke="none" 
	d="
M238.010117,121.582870 
	C235.635025,120.692741 233.467972,119.515808 231.039978,118.099533 
	C231.879272,114.843277 233.426331,112.261024 237.150314,114.197144 
	C240.459366,115.917542 240.955093,118.463562 238.010117,121.582870 
z"/>
<path fill="#2F3D48" opacity="1.000000" stroke="none" 
	d="
M201.896652,76.395752 
	C198.044922,81.079903 194.092880,77.298523 190.213928,76.443619 
	C190.833450,75.075241 191.417725,74.059006 192.001999,73.042770 
	C193.711700,72.815224 195.421387,72.587685 197.514893,72.344391 
	C198.690567,72.547546 199.482437,72.766457 200.664307,73.351898 
	C201.441620,74.186417 201.828918,74.654411 202.216217,75.122406 
	C202.107849,75.458664 201.999466,75.794922 201.896652,76.395752 
z"/>
<path fill="#BABABE" opacity="1.000000" stroke="none" 
	d="
M104.090256,69.765022 
	C103.349663,70.306107 102.540344,70.631981 101.202454,70.796791 
	C100.449554,70.439705 100.253418,70.218643 100.085487,69.972549 
	C99.484215,69.204178 98.882950,68.435799 98.047974,67.086937 
	C97.423065,66.308846 97.031853,66.111252 96.765045,65.639954 
	C96.865097,64.967323 96.840767,64.568405 96.874008,63.844391 
	C96.684189,62.953732 96.436806,62.388161 96.271217,61.511414 
	C96.484978,60.177536 96.616943,59.154835 96.748909,58.132133 
	C99.570724,56.769276 101.188087,56.298393 100.749741,60.788074 
	C100.501167,63.333988 102.393806,66.088959 103.629890,68.927780 
	C103.937691,69.105782 104.021523,69.549805 104.090256,69.765022 
z"/>
<path fill="#788D44" opacity="1.000000" stroke="none" 
	d="
M51.449383,135.266205 
	C49.575302,134.158752 48.036255,133.116196 46.522163,132.090546 
	C47.542747,129.454819 52.721333,132.420959 52.030037,127.448425 
	C53.847939,128.290070 55.698055,129.449356 57.773151,130.856812 
	C57.171375,132.455048 56.344620,133.805130 55.137547,135.776245 
	C54.632320,135.709183 53.208370,135.520142 51.449383,135.266205 
z"/>
<path fill="#D6C274" opacity="1.000000" stroke="none" 
	d="
M180.265564,86.984337 
	C179.924713,89.556526 178.716354,90.737709 175.779419,89.480072 
	C175.598190,88.368080 175.702087,87.380333 176.247391,85.856689 
	C177.187683,83.027588 177.686554,80.734390 178.185425,78.441193 
	C178.185425,78.441193 178.359955,78.265991 178.472702,78.205406 
	C180.856888,77.098824 182.474518,77.020714 181.791458,80.321281 
	C181.528961,81.589630 181.251038,82.854774 180.749176,84.712128 
	C180.433990,85.863358 180.349777,86.423851 180.265564,86.984337 
z"/>
<path fill="#D0D0D0" opacity="1.000000" stroke="none" 
	d="
M130.213715,61.962257 
	C129.929626,62.603600 129.584320,62.943237 128.681793,63.625462 
	C126.839279,64.059128 125.553986,64.150208 124.268692,64.241287 
	C124.064384,64.189781 123.860069,64.138260 123.453354,63.752808 
	C123.113388,62.592834 122.975838,61.766788 122.838287,60.940742 
	C122.863998,60.205990 122.889709,59.471233 123.255020,58.329563 
	C124.062263,57.260712 124.529907,56.598774 124.997543,55.936836 
	C126.715858,57.844742 128.434174,59.752651 130.213715,61.962257 
z"/>
<path fill="#F7F7F7" opacity="1.000000" stroke="none" 
	d="
M63.935608,142.021637 
	C62.152397,138.839523 60.528156,135.339508 58.808586,131.483566 
	C60.065968,130.631378 61.418682,130.135101 63.478554,129.379410 
	C63.690334,133.616364 63.892456,137.660065 63.935608,142.021637 
z"/>
<path fill="#AAA9A9" opacity="1.000000" stroke="none" 
	d="
M181.522339,114.582672 
	C184.419876,115.722961 185.332230,117.541756 183.950348,120.515312 
	C182.351120,120.221794 180.833038,119.597946 179.314941,118.974098 
	C179.920517,117.538460 180.526093,116.102821 181.522339,114.582672 
z"/>
<path fill="#E0E0DF" opacity="1.000000" stroke="none" 
	d="
M152.589996,141.961441 
	C152.272675,142.970169 151.531403,143.965775 150.885605,145.019897 
	C150.432465,145.759567 150.109512,146.578979 149.849548,147.673584 
	C148.490891,147.074738 147.011124,146.165070 145.244354,145.108261 
	C147.373840,143.965195 149.790344,142.969254 152.589996,141.961441 
z"/>
<path fill="#F3F3F3" opacity="1.000000" stroke="none" 
	d="
M153.136444,97.875687 
	C156.631744,100.050537 157.106567,104.987587 154.108978,108.611473 
	C153.696503,105.280060 153.290588,102.001549 152.952545,98.349274 
	C153.020416,97.975510 153.136444,97.875687 153.136444,97.875687 
z"/>
<path fill="#F7F7F7" opacity="1.000000" stroke="none" 
	d="
M156.308685,131.613770 
	C155.013641,129.917526 154.014328,128.415665 153.014999,126.913788 
	C153.192947,126.799522 153.370895,126.685249 153.548843,126.570976 
	C155.939850,128.669632 158.330872,130.768280 160.721893,132.866928 
	C160.614548,133.058670 160.507217,133.250412 160.399887,133.442154 
	C159.134720,132.897491 157.869568,132.352829 156.308685,131.613770 
z"/>
<path fill="#F3F3F3" opacity="1.000000" stroke="none" 
	d="
M146.862396,109.664169 
	C146.407455,107.843506 146.265915,106.198898 146.027908,103.433594 
	C148.381454,105.317711 149.700668,106.373810 151.945862,108.171188 
	C150.024429,108.843491 148.600113,109.341850 146.862396,109.664169 
z"/>
<path fill="#4BA4A3" opacity="1.000000" stroke="none" 
	d="
M141.173065,174.636230 
	C139.963257,173.883835 139.003860,173.180923 138.338562,172.242065 
	C140.425064,171.964920 142.217484,171.923706 144.009903,171.882507 
	C146.046082,171.916153 148.082275,171.949799 150.555115,171.976044 
	C148.483200,172.468796 145.974640,172.968964 143.016708,173.839142 
	C142.298965,174.300064 142.087784,174.464462 141.933777,174.702347 
	C141.763687,174.696808 141.593582,174.691254 141.173065,174.636230 
z"/>
<path fill="#E0E0DF" opacity="1.000000" stroke="none" 
	d="
M124.794502,55.682281 
	C124.529907,56.598774 124.062263,57.260712 123.259850,57.961891 
	C121.809990,56.933590 120.694908,55.866035 119.579826,54.798481 
	C119.831871,54.457733 120.083916,54.116982 120.335960,53.776230 
	C121.754463,54.326729 123.172958,54.877232 124.794502,55.682281 
z"/>
<path fill="#F7F7F7" opacity="1.000000" stroke="none" 
	d="
M149.023544,126.023956 
	C147.640060,128.498489 146.229797,130.946060 144.819534,133.393631 
	C144.362885,133.092026 143.906235,132.790421 143.449585,132.488815 
	C145.044769,130.346619 146.639969,128.204422 148.588959,126.002899 
	C148.942764,125.943581 148.996780,125.996994 149.023544,126.023956 
z"/>
<path fill="#E0E0DF" opacity="1.000000" stroke="none" 
	d="
M122.494263,60.950058 
	C122.975838,61.766788 123.113388,62.592834 123.141708,63.700134 
	C121.843872,64.034012 120.655258,64.086647 119.177719,63.969826 
	C119.975945,62.853374 121.063095,61.906376 122.494263,60.950058 
z"/>
<path fill="#F3F3F3" opacity="1.000000" stroke="none" 
	d="
M92.724106,44.661064 
	C91.982758,46.553963 91.113785,48.144737 90.244820,49.735512 
	C89.680733,49.317829 89.116646,48.900146 88.552551,48.482464 
	C89.900528,47.107956 91.248505,45.733448 92.724106,44.661064 
z"/>
<path fill="#F7F7F7" opacity="1.000000" stroke="none" 
	d="
M164.849304,131.814728 
	C165.945633,132.148636 166.793030,132.711136 167.640411,133.273651 
	C166.261276,134.017822 164.882156,134.762009 163.503021,135.506195 
	C163.285858,135.200302 163.068695,134.894409 162.851532,134.588516 
	C163.434464,133.740128 164.017410,132.891724 164.849304,131.814728 
z"/>
<path fill="#4B5E5A" opacity="1.000000" stroke="none" 
	d="
M156.405716,61.786201 
	C153.125809,61.704491 150.027908,61.346397 146.515991,60.986420 
	C146.202194,60.353565 146.302429,59.722591 146.750977,58.994720 
	C150.262100,59.768490 153.424911,60.639160 156.405716,61.786201 
z"/>
<path fill="#DCA829" opacity="1.000000" stroke="none" 
	d="
M219.985397,136.018768 
	C219.368988,135.563354 218.752594,135.107941 218.078278,134.340240 
	C219.015030,133.070282 220.009705,132.112625 221.306168,131.323669 
	C221.115936,132.759506 220.623901,134.026642 220.066101,135.646942 
	C220.000305,136.000107 219.985397,136.018768 219.985397,136.018768 
z"/>
<path fill="#83CCC6" opacity="1.000000" stroke="none" 
	d="
M177.888214,78.592834 
	C177.686554,80.734390 177.187683,83.027588 176.529816,85.607773 
	C176.777542,83.511330 177.184280,81.127907 177.888214,78.592834 
z"/>
<path fill="#989898" opacity="1.000000" stroke="none" 
	d="
M88.317520,71.949661 
	C87.783684,70.021706 87.572853,68.041237 87.944595,66.059967 
	C89.043762,66.339302 89.560364,66.619446 89.778152,67.029037 
	C89.330635,67.764954 89.181908,68.371422 89.163788,69.273689 
	C89.692017,69.729698 90.089653,69.889908 90.487282,70.050110 
	C89.871696,70.665794 89.256111,71.281471 88.317520,71.949661 
z"/>
<path fill="#DCA829" opacity="1.000000" stroke="none" 
	d="
M225.667328,124.931488 
	C226.241547,125.025719 226.532867,125.217010 226.971451,125.624588 
	C226.120056,126.302933 225.121399,126.764992 223.938980,126.946655 
	C224.298294,126.120361 224.841354,125.574455 225.667328,124.931488 
z"/>
<path fill="#989898" opacity="1.000000" stroke="none" 
	d="
M136.975906,146.558960 
	C136.231247,145.842331 135.526855,144.777145 135.180145,143.365326 
	C135.708221,143.008820 135.878632,142.998962 136.049042,142.989105 
	C136.371429,144.062881 136.693802,145.136658 136.975906,146.558960 
z"/>
<path fill="#989898" opacity="1.000000" stroke="none" 
	d="
M93.777908,55.012947 
	C93.635971,55.816078 93.494034,56.619213 92.979385,57.716881 
	C92.606682,58.011417 92.120407,58.076187 91.992462,57.805000 
	C91.576012,57.262863 91.287498,56.991909 91.053162,56.555809 
	C91.107338,56.390659 91.279037,56.088398 91.454605,55.955055 
	C91.830589,55.594463 91.953583,55.331066 91.999161,55.031517 
	C91.999161,55.031517 92.456451,54.950413 92.899658,54.992535 
	C93.342857,55.034657 93.777908,55.012947 93.777908,55.012947 
z"/>
<path fill="#AEC8CA" opacity="1.000000" stroke="none" 
	d="
M174.330414,93.076477 
	C175.083084,93.331116 175.534500,93.714645 176.055786,94.319199 
	C175.426819,94.095268 174.727997,93.650322 174.330414,93.076477 
z"/>
<path fill="#BABABE" opacity="1.000000" stroke="none" 
	d="
M91.864746,54.756958 
	C91.953583,55.331066 91.830589,55.594463 91.298889,55.684700 
	C90.356018,55.010376 89.744446,54.473064 89.124741,53.924152 
	C89.116600,53.912552 89.137245,53.882645 89.144241,53.720566 
	C89.151237,53.558487 89.130219,53.234711 89.130219,53.234711 
	C89.996925,53.650608 90.863632,54.066505 91.864746,54.756958 
z"/>
<path fill="#F7F7F7" opacity="1.000000" stroke="none" 
	d="
M95.998131,67.076607 
	C95.701881,67.579262 95.405624,68.081924 94.957031,68.839493 
	C94.522278,69.065109 94.239113,69.051346 93.732849,68.861481 
	C93.510498,68.669861 93.289688,68.383179 93.452957,68.081383 
	C94.410194,67.545258 95.204163,67.310936 95.998131,67.076607 
z"/>
<path fill="#F3F3F3" opacity="1.000000" stroke="none" 
	d="
M88.958878,52.952847 
	C89.130219,53.234711 89.151237,53.558487 88.808235,53.725487 
	C87.973419,53.265285 87.481606,52.638084 86.989792,52.010880 
	C86.989792,52.010880 86.998917,52.001186 87.004868,51.995308 
	C87.603065,52.216614 88.195297,52.443798 88.958878,52.952847 
z"/>
<path fill="#AEC8CA" opacity="1.000000" stroke="none" 
	d="
M202.487946,74.922729 
	C201.828918,74.654411 201.441620,74.186417 200.976318,73.391800 
	C201.518784,73.617805 202.139236,74.170433 202.487946,74.922729 
z"/>
<path fill="#4B5E5A" opacity="1.000000" stroke="none" 
	d="
M136.070511,142.624863 
	C135.878632,142.998962 135.708221,143.008820 135.282928,142.994629 
	C134.992142,142.521149 134.956253,142.071671 134.857971,141.289719 
	C134.918625,140.433456 135.041656,139.909698 135.164703,139.385925 
	C135.391281,139.405228 135.617859,139.424545 135.844452,139.443848 
	C135.926956,140.382782 136.009460,141.321701 136.070511,142.624863 
z"/>
<path fill="#D0D0D0" opacity="1.000000" stroke="none" 
	d="
M90.726906,70.041245 
	C90.089653,69.889908 89.692017,69.729698 89.505379,69.275673 
	C90.386864,68.985588 91.057350,68.989311 91.824348,68.992363 
	C91.920860,68.991684 92.056870,69.128670 92.056870,69.128670 
	C91.693428,69.429909 91.329979,69.731148 90.726906,70.041245 
z"/>
<path fill="#F3F3F3" opacity="1.000000" stroke="none" 
	d="
M150.119049,95.738022 
	C150.219421,95.258049 150.359619,95.006088 150.499802,94.754120 
	C150.639877,95.005981 150.942368,95.316132 150.878265,95.494698 
	C150.800934,95.710129 150.412598,95.813919 150.119049,95.738022 
z"/>
<path fill="#F3F3F3" opacity="1.000000" stroke="none" 
	d="
M152.959747,98.022163 
	C152.590515,97.416054 152.281952,96.763290 151.973389,96.110527 
	C152.204819,96.027878 152.436249,95.945229 152.667694,95.862579 
	C152.797714,96.344116 152.927750,96.825653 153.097107,97.591446 
	C153.136444,97.875687 153.020416,97.975510 152.959747,98.022163 
z"/>
<path fill="#F3F3F3" opacity="1.000000" stroke="none" 
	d="
M96.000488,47.999672 
	C95.703224,47.344810 95.405472,46.690277 95.107719,46.035748 
	C95.320572,45.966442 95.533417,45.897133 95.746262,45.827827 
	C95.830734,46.353985 95.915207,46.880146 95.999229,47.703686 
	C95.998779,48.001068 96.000000,48.000000 96.000488,47.999672 
z"/>
<path fill="#83CCC6" opacity="1.000000" stroke="none" 
	d="
M142.317200,174.825562 
	C142.087784,174.464462 142.298965,174.300064 142.757278,174.137878 
	C143.510391,174.136307 144.073547,174.205994 144.853638,174.459229 
	C144.280579,174.744766 143.490585,174.846756 142.317200,174.825562 
z"/>
<path fill="#AAA9A9" opacity="1.000000" stroke="none" 
	d="
M134.092834,140.654739 
	C134.011139,141.225296 133.812881,141.472961 133.340210,141.759033 
	C133.231903,141.106598 133.347107,140.374969 133.462296,139.643326 
	C133.650604,139.886429 133.838913,140.129532 134.092834,140.654739 
z"/>
<path fill="#5AB4B8" opacity="1.000000" stroke="none" 
	d="
M56.926208,172.507156 
	C57.144844,172.779510 57.145584,173.087433 57.108150,173.626236 
	C56.971699,173.418930 56.851143,172.980804 56.926208,172.507156 
z"/>
<path fill="#E2D6CE" opacity="1.000000" stroke="none" 
	d="
M197.083496,121.242996 
	C197.232193,120.907021 197.490021,120.738922 197.853699,120.717140 
	C197.703903,121.045929 197.448257,121.228401 197.083496,121.242996 
z"/>
<path fill="#DCA829" opacity="1.000000" stroke="none" 
	d="
M221.404907,130.097366 
	C221.803497,130.386398 222.037506,131.037216 221.945755,131.773468 
	C221.493439,131.392319 221.366882,130.925735 221.404907,130.097366 
z"/>
<path fill="#BABABE" opacity="1.000000" stroke="none" 
	d="
M94.026123,54.952820 
	C93.777908,55.012947 93.342857,55.034657 93.131531,54.980118 
	C93.118164,54.638893 93.316116,54.352215 93.743332,53.929993 
	C94.073166,54.160530 94.173752,54.526615 94.026123,54.952820 
z"/>
<path fill="#83CCC6" opacity="1.000000" stroke="none" 
	d="
M216.128418,174.541946 
	C216.030655,174.261505 216.192932,174.112610 216.570724,173.973434 
	C216.799576,174.269440 216.666962,174.499542 216.128418,174.541946 
z"/>
<path fill="#989898" opacity="1.000000" stroke="none" 
	d="
M93.289688,68.383179 
	C93.289688,68.383179 93.510498,68.669861 93.518883,68.850693 
	C93.282227,69.048409 93.037186,69.065285 92.424507,69.105423 
	C92.056870,69.128670 91.920860,68.991684 91.809837,68.764511 
	C91.698814,68.537338 91.851044,68.105637 92.218765,68.133255 
	C92.820885,68.234985 93.055290,68.309082 93.289688,68.383179 
z"/>
<path fill="#55BFBA" opacity="1.000000" stroke="none" 
	d="
M127.383560,76.645767 
	C127.328171,76.322647 127.555374,76.183121 128.068909,76.223114 
	C128.117813,76.531677 127.888115,76.673927 127.383560,76.645767 
z"/>
<path fill="#32455B" opacity="1.000000" stroke="none" 
	d="
M71.542213,112.578369 
	C71.701057,112.381775 72.102180,112.356956 72.737244,112.534576 
	C72.575615,112.741386 72.180054,112.745758 71.542213,112.578369 
z"/>
<path fill="#F3F3F3" opacity="1.000000" stroke="none" 
	d="
M108.999596,62.000313 
	C109.119682,62.141037 109.240173,62.281452 109.360672,62.421867 
	C109.276321,62.372501 109.191978,62.323139 109.054131,62.136482 
	C109.000633,61.999184 109.000000,62.000000 108.999596,62.000313 
z"/>
<path fill="#A7831F" opacity="1.000000" stroke="none" 
	d="
M154.832703,44.228508 
	C153.351089,43.756184 152.181992,43.164471 151.012894,42.572754 
	C151.233994,42.037636 151.455093,41.502518 151.676208,40.967400 
	C155.475922,41.775326 159.275635,42.583256 163.075348,43.391182 
	C162.939133,44.144886 162.802933,44.898594 162.666718,45.652298 
	C160.159561,45.137901 157.652390,44.623508 154.832703,44.228508 
z"/>
<path fill="#AAA9A9" opacity="1.000000" stroke="none" 
	d="
M137.915344,170.112106 
	C136.471863,170.772873 135.028366,171.433640 133.248627,172.216339 
	C132.483902,172.248672 132.055435,172.159058 130.970642,172.030167 
	C129.876801,172.041397 129.439331,172.091904 129.001846,172.142426 
	C129.001846,172.142410 128.972092,172.022720 128.994125,171.964859 
	C129.014069,171.486404 129.011978,171.065826 129.150604,170.269821 
	C129.189499,169.923538 129.087646,169.952667 128.985794,169.981812 
	C126.619606,169.987411 124.253426,169.993011 121.443771,169.997772 
	C121.000305,169.996948 121.002998,169.505356 120.715408,168.956268 
	C115.286888,168.249725 110.145958,168.092285 105.005020,167.934845 
	C104.360619,166.530502 103.716217,165.126190 103.492966,163.372330 
	C109.658058,163.566544 115.402008,164.110291 121.145950,164.654037 
	C121.215378,164.332321 121.284813,164.010605 121.354240,163.688889 
	C118.570206,163.118713 115.786163,162.548553 113.001686,161.642853 
	C113.003922,160.858871 113.006599,160.410446 113.380478,159.967438 
	C114.871597,159.972870 115.991531,159.972870 117.111465,159.972870 
	C117.168503,159.565643 117.225533,159.158417 117.282562,158.751190 
	C113.804741,158.166458 110.346703,157.290955 106.845291,157.052643 
	C97.147247,156.392502 87.910637,158.769424 78.820496,161.846558 
	C84.618874,159.565353 90.249390,156.586990 96.249207,155.142395 
	C110.464149,151.719849 122.751060,156.998383 134.501648,165.100006 
	C135.955902,165.768723 137.075821,166.352020 138.563263,167.238739 
	C138.592300,168.398834 138.253815,169.255463 137.915344,170.112106 
M120.182587,160.760880 
	C120.125237,160.589798 120.067894,160.418732 120.010544,160.247650 
	C119.954979,160.419708 119.899422,160.591766 120.182587,160.760880 
z"/>
<path fill="#A3A1A1" opacity="1.000000" stroke="none" 
	d="
M137.947174,170.397552 
	C138.253815,169.255463 138.592300,168.398834 138.927399,167.191772 
	C139.753021,165.943100 140.582001,165.044846 141.969971,163.894623 
	C143.072876,162.797699 143.616806,161.952728 144.160736,161.107758 
	C144.160721,161.107758 144.583191,161.085022 144.789276,161.037369 
	C146.098221,160.671371 147.201096,160.353012 148.688370,160.318542 
	C150.042648,160.729568 151.012512,160.856720 152.095642,161.207062 
	C152.475510,161.623444 152.742126,161.816620 153.006042,162.265350 
	C153.002869,162.691238 153.002411,162.861603 153.001953,163.031982 
	C152.031616,163.803116 151.061264,164.574265 149.688812,165.738342 
	C148.858414,167.420242 148.430130,168.709213 148.001831,169.998169 
	C146.671326,170.413879 145.340820,170.829590 144.010101,171.563904 
	C142.217484,171.923706 140.425064,171.964920 138.330078,171.916916 
	C138.011353,171.446152 137.995178,171.064575 137.947174,170.397552 
z"/>
<path fill="#D0D0D0" opacity="1.000000" stroke="none" 
	d="
M143.808563,161.106155 
	C143.616806,161.952728 143.072876,162.797699 142.225403,163.718048 
	C142.433380,162.897141 142.944901,162.000854 143.808563,161.106155 
z"/>
<path fill="#989898" opacity="1.000000" stroke="none" 
	d="
M78.478394,162.025513 
	C87.910637,158.769424 97.147247,156.392502 106.845291,157.052643 
	C110.346703,157.290955 113.804741,158.166458 117.282562,158.751190 
	C117.225533,159.158417 117.168503,159.565643 117.111465,159.972870 
	C115.991531,159.972870 114.871597,159.972870 113.207397,159.730225 
	C112.107719,159.336441 111.552299,159.185303 110.529343,159.024536 
	C104.375046,159.345535 98.688301,159.676147 93.001549,160.006775 
	C86.873924,161.681900 80.769157,163.451920 74.596283,164.939194 
	C73.561790,165.188431 72.232086,164.212372 71.038933,163.446625 
	C73.404816,162.795364 75.770554,162.499924 78.478394,162.025513 
z"/>
<path fill="#798939" opacity="1.000000" stroke="none" 
	d="
M31.680950,156.515549 
	C33.221313,155.258545 34.945702,154.312332 36.889866,153.063690 
	C40.720909,151.108734 41.868282,153.104294 42.068684,156.225540 
	C42.203579,158.326538 42.094379,160.443176 42.094379,164.173111 
	C38.050102,161.268509 34.957542,159.047424 31.680950,156.515549 
z"/>
<path fill="#7ABEC6" opacity="1.000000" stroke="none" 
	d="
M35.018414,137.492233 
	C35.977859,139.501755 36.976509,141.843719 37.988846,144.591187 
	C37.020897,142.606018 36.039257,140.215332 35.018414,137.492233 
z"/>
<path fill="#989898" opacity="1.000000" stroke="none" 
	d="
M168.974213,170.902420 
	C167.671387,170.272278 166.403885,169.207764 165.058701,169.098297 
	C161.796829,168.832886 158.498795,169.012009 155.234589,168.635620 
	C166.385834,168.635620 177.537079,168.635620 188.688324,168.635620 
	C188.700836,169.001221 188.713348,169.366821 188.725845,169.732437 
	C184.688416,169.941864 180.650986,170.151291 175.973328,170.694519 
	C174.873962,170.995834 174.414841,170.963364 173.780365,170.688873 
	C172.751938,170.607407 171.898865,170.767975 170.701080,170.974762 
	C169.895645,170.981476 169.434937,170.941940 168.974213,170.902420 
z"/>
<path fill="#A3A1A1" opacity="1.000000" stroke="none" 
	d="
M190.003052,161.996948 
	C192.324326,162.656494 194.645615,163.316040 197.279556,164.064407 
	C192.256439,166.731415 187.717300,166.298584 180.186661,162.115265 
	C179.999863,161.351807 179.999329,161.176514 180.332336,161.000153 
	C181.110596,160.999603 181.555298,161.000107 182.206039,161.261993 
	C183.273911,161.677750 184.135727,161.832138 185.372910,161.989929 
	C186.499008,161.995743 187.249741,161.998184 188.000244,162.000305 
	C188.000000,162.000000 187.999252,161.999390 188.144531,162.225067 
	C188.859116,162.301010 189.428421,162.151306 189.998856,162.000793 
	C190.000000,162.000000 190.003052,161.996948 190.003052,161.996948 
z"/>
<path fill="#989898" opacity="1.000000" stroke="none" 
	d="
M179.998779,161.001221 
	C179.999329,161.176514 179.999863,161.351807 179.996307,161.790680 
	C171.295197,162.373764 162.598190,162.693253 153.451569,163.022369 
	C153.002411,162.861603 153.002869,162.691238 153.427994,162.259445 
	C162.510437,160.154922 171.211151,159.438354 179.998779,161.001221 
z"/>
<path fill="#4BA4A3" opacity="1.000000" stroke="none" 
	d="
M211.575226,171.969620 
	C203.527618,172.255127 195.077240,172.453186 186.312531,172.385010 
	C194.389618,172.039886 202.781052,171.961029 211.575226,171.969620 
z"/>
<path fill="#4B5E5A" opacity="1.000000" stroke="none" 
	d="
M168.509521,170.930939 
	C169.434937,170.941940 169.895645,170.981476 171.063965,171.006134 
	C172.499603,170.971161 173.227661,170.951019 173.955719,170.930878 
	C174.414841,170.963364 174.873962,170.995834 175.675842,170.980164 
	C178.842117,171.068710 181.665649,171.205429 184.749695,171.653595 
	C182.631012,171.992569 180.251816,172.020111 176.964386,172.028259 
	C168.382370,172.057922 160.708603,172.107010 153.034821,172.156082 
	C152.858948,172.131393 152.683090,172.106720 152.262848,171.818024 
	C152.018463,171.553970 152.071365,171.105850 152.071365,171.105850 
	C157.395859,171.057053 162.720352,171.008255 168.509521,170.930939 
z"/>
<path fill="#A7A8A9" opacity="1.000000" stroke="none" 
	d="
M188.000488,162.000610 
	C187.249741,161.998184 186.499008,161.995743 185.373901,161.659119 
	C184.999680,160.883469 184.999847,160.442047 184.999146,159.632812 
	C184.989258,158.532486 184.980225,157.799927 184.971176,157.067383 
	C186.505844,157.525177 188.040497,157.982971 189.789749,158.711273 
	C190.003235,159.428833 190.002136,159.875916 189.703217,160.680817 
	C188.937103,161.359299 188.468796,161.679962 188.000488,162.000610 
z"/>
<path fill="#989898" opacity="1.000000" stroke="none" 
	d="
M148.317535,169.997955 
	C148.430130,168.709213 148.858414,167.420242 149.644577,166.063812 
	C150.718948,166.125565 151.435471,166.254791 152.151978,166.384003 
	C151.945572,166.572586 151.739182,166.761185 151.040222,167.119614 
	C150.703400,167.852783 150.859177,168.416122 151.014954,168.979462 
	C150.221039,169.318893 149.427139,169.658325 148.317535,169.997955 
z"/>
<path fill="#A3A1A1" opacity="1.000000" stroke="none" 
	d="
M188.000244,162.000305 
	C188.468796,161.679962 188.937103,161.359299 189.703613,161.015961 
	C190.002731,161.160568 190.003616,161.327866 190.003784,161.746048 
	C190.003052,161.996948 190.000000,162.000000 189.665817,162.000610 
	C188.887512,162.000610 188.443375,162.000000 187.999252,161.999390 
	C187.999252,161.999390 188.000000,162.000000 188.000244,162.000305 
z"/>
<path fill="#A3A1A1" opacity="1.000000" stroke="none" 
	d="
M151.010834,168.650330 
	C150.859177,168.416122 150.703400,167.852783 150.775772,167.146759 
	C151.004852,167.443115 151.005783,167.882156 151.010834,168.650330 
z"/>
<path fill="#4BA4A3" opacity="1.000000" stroke="none" 
	d="
M214.737885,172.132736 
	C214.970367,172.209671 214.602585,172.520157 214.602585,172.520157 
	C214.602585,172.520157 214.169418,172.383728 214.092957,172.234436 
	C214.016479,172.085144 214.505386,172.055801 214.737885,172.132736 
z"/>
<path fill="#4BA4A3" opacity="1.000000" stroke="none" 
	d="
M151.822479,171.150436 
	C152.071365,171.105850 152.018463,171.553970 151.999390,171.778809 
	C151.812210,172.003616 151.644119,172.003616 151.224060,171.990173 
	C151.172592,171.716171 151.373077,171.455597 151.822479,171.150436 
z"/>
<path fill="#989898" opacity="1.000000" stroke="none" 
	d="
M184.642090,157.044098 
	C184.980225,157.799927 184.989258,158.532486 184.624985,159.633606 
	C183.503647,159.994400 182.755630,159.986588 181.744568,159.699371 
	C172.698730,156.567780 163.850037,157.988007 155.003082,159.005188 
	C154.998703,158.998764 154.985062,158.984421 155.207855,158.715820 
	C157.302017,157.335327 159.173416,156.223419 161.044800,155.111511 
	C162.101212,155.077240 163.157639,155.042953 164.894730,155.306458 
	C170.509277,156.372955 175.435623,157.198547 180.384491,157.853943 
	C181.203369,157.962402 182.120804,157.326538 182.992691,157.034653 
	C183.432800,157.030029 183.872894,157.025406 184.642090,157.044098 
z"/>
<path fill="#AAA9A9" opacity="1.000000" stroke="none" 
	d="
M182.752533,156.741821 
	C182.120804,157.326538 181.203369,157.962402 180.384491,157.853943 
	C175.435623,157.198547 170.509277,156.372955 165.291260,155.317703 
	C170.842194,155.503769 176.677277,155.976379 182.752533,156.741821 
z"/>
<path fill="#AAA9A9" opacity="1.000000" stroke="none" 
	d="
M160.668472,155.107666 
	C159.173416,156.223419 157.302017,157.335327 154.910034,158.696167 
	C153.923889,158.622940 153.458359,158.300766 152.992828,157.978592 
	C155.425934,157.020325 157.859039,156.062057 160.668472,155.107666 
z"/>
<path fill="#989898" opacity="1.000000" stroke="none" 
	d="
M152.668610,158.019501 
	C153.458359,158.300766 153.923889,158.622940 154.687241,158.964783 
	C154.985062,158.984421 154.998703,158.998764 154.818237,159.257538 
	C153.752655,160.005508 152.867523,160.494690 151.982391,160.983871 
	C151.012512,160.856720 150.042648,160.729568 149.035767,160.299377 
	C150.113968,159.351028 151.229172,158.705719 152.668610,158.019501 
z"/>
<path fill="#989898" opacity="1.000000" stroke="none" 
	d="
M113.002129,161.978394 
	C115.786163,162.548553 118.570206,163.118713 121.354240,163.688889 
	C121.284813,164.010605 121.215378,164.332321 121.145950,164.654037 
	C115.402008,164.110291 109.658058,163.566544 103.459076,163.035675 
	C96.066826,164.035568 89.129623,165.022598 82.192421,166.009628 
	C82.144119,165.794266 82.095810,165.578903 82.047508,165.363541 
	C85.533241,164.430695 89.018974,163.497849 93.203613,162.284271 
	C99.600204,161.984772 105.297890,161.966003 111.329819,161.961914 
	C112.110077,161.977219 112.556107,161.977798 113.002129,161.978394 
z"/>
<path fill="#AAA9A9" opacity="1.000000" stroke="none" 
	d="
M110.995575,161.947220 
	C105.297890,161.966003 99.600204,161.984772 93.452972,162.007248 
	C93.002625,161.565460 93.001823,161.119995 93.001282,160.340637 
	C98.688301,159.676147 104.375046,159.345535 110.530441,159.388611 
	C110.997910,160.490601 110.996742,161.218918 110.995575,161.947220 
z"/>
<path fill="#989898" opacity="1.000000" stroke="none" 
	d="
M104.564888,167.954926 
	C110.145958,168.092285 115.286888,168.249725 120.716904,168.710464 
	C113.059288,169.013763 105.112602,169.013763 97.165916,169.013763 
	C97.156174,168.667511 97.146423,168.321243 97.136681,167.974991 
	C99.466042,167.974991 101.795395,167.974991 104.564888,167.954926 
z"/>
<path fill="#1D1B20" opacity="1.000000" stroke="none" 
	d="
M191.598724,72.974167 
	C191.417725,74.059006 190.833450,75.075241 189.923279,76.195633 
	C188.319366,76.187981 187.041351,76.076180 185.378082,75.907242 
	C183.238373,75.092751 181.483887,74.335403 179.729385,73.578056 
	C179.863556,72.889885 179.997711,72.201706 180.131866,71.513535 
	C183.819733,71.977539 187.507584,72.441551 191.598724,72.974167 
z"/>
<path fill="#55BFBA" opacity="1.000000" stroke="none" 
	d="
M192.984818,90.546486 
	C192.553772,90.920853 192.127274,90.930695 191.382751,90.905441 
	C191.181427,89.734169 191.298080,88.597992 191.414734,87.461807 
	C191.738525,87.441696 192.062332,87.421585 192.386124,87.401466 
	C192.587204,88.328300 192.788269,89.255127 192.984818,90.546486 
z"/>
<path fill="#55BFBA" opacity="1.000000" stroke="none" 
	d="
M196.664246,87.995270 
	C196.237366,88.972366 195.464264,89.952553 194.361832,90.933540 
	C194.794342,89.955688 195.556198,88.977028 196.664246,87.995270 
z"/>
<path fill="#38B1B3" opacity="1.000000" stroke="none" 
	d="
M187.942062,82.900665 
	C187.168365,82.552711 186.394669,82.204758 185.620972,81.856804 
	C186.159073,81.597588 186.697189,81.338371 187.548950,81.095398 
	C187.862625,81.111641 187.885239,81.082916 187.907440,81.386536 
	C187.933792,82.093651 187.937927,82.497162 187.942062,82.900665 
z"/>
<path fill="#A7A8A9" opacity="1.000000" stroke="none" 
	d="
M193.096893,79.997551 
	C194.032059,80.412476 194.967239,80.827408 195.949005,81.573929 
	C195.267075,81.919533 194.538528,81.933540 193.425293,81.724838 
	C193.040619,81.502113 192.975128,81.088684 193.017715,80.817261 
	C193.072495,80.363068 193.084702,80.180313 193.096893,79.997551 
z"/>
<path fill="#8ECAC9" opacity="1.000000" stroke="none" 
	d="
M187.980255,83.170898 
	C187.937927,82.497162 187.933792,82.093651 187.919464,81.387947 
	C188.367584,81.054535 188.825928,81.023323 189.627716,80.984932 
	C189.320267,81.798874 188.669357,82.620003 187.980255,83.170898 
z"/>
<path fill="#7ABEC6" opacity="1.000000" stroke="none" 
	d="
M180.511444,86.960724 
	C180.349777,86.423851 180.433990,85.863358 180.733643,85.106064 
	C180.885162,85.585205 180.821228,86.261154 180.511444,86.960724 
z"/>
<path fill="#8ECAC9" opacity="1.000000" stroke="none" 
	d="
M184.120697,85.719498 
	C184.221252,85.243843 184.361496,84.994148 184.501740,84.744461 
	C184.641357,84.993805 184.944733,85.305840 184.879318,85.476700 
	C184.796524,85.693001 184.413757,85.794472 184.120697,85.719498 
z"/>
<path fill="#989898" opacity="1.000000" stroke="none" 
	d="
M192.759811,80.005234 
	C193.084702,80.180313 193.072495,80.363068 192.700623,80.771820 
	C191.914795,81.014427 191.488663,81.031052 191.062531,81.047676 
	C191.062531,81.047676 190.578400,80.963287 190.338470,80.914490 
	C190.873276,80.581436 191.647995,80.297173 192.759811,80.005234 
z"/>
<path fill="#AEC8CA" opacity="1.000000" stroke="none" 
	d="
M191.216522,81.300949 
	C191.488663,81.031052 191.914795,81.014427 192.658020,81.043243 
	C192.975128,81.088684 193.040619,81.502113 193.061096,81.709702 
	C192.511230,81.796265 191.940857,81.675247 191.216522,81.300949 
z"/>
<path fill="#55BFBA" opacity="1.000000" stroke="none" 
	d="
M193.987213,83.229080 
	C194.115479,83.422462 194.052750,83.617325 193.990021,83.812180 
	C193.925415,83.618317 193.860809,83.424438 193.987213,83.229080 
z"/>
<path fill="#DCA829" opacity="1.000000" stroke="none" 
	d="
M220.009628,135.992599 
	C220.138947,136.136993 220.258942,136.288895 220.378952,136.440796 
	C220.287170,136.393555 220.195404,136.346313 220.044510,136.158905 
	C219.985397,136.018768 220.000305,136.000107 220.009628,135.992599 
z"/>
<path fill="#FEFEFD" opacity="1.000000" stroke="none" 
	d="
M86.590172,52.011963 
	C87.481606,52.638084 87.973419,53.265285 88.801239,53.887566 
	C89.137245,53.882645 89.116600,53.912552 88.939651,54.159649 
	C88.271568,55.195873 84.672409,54.913837 87.848564,57.322868 
	C87.777809,58.127579 87.735474,58.586090 87.533585,59.159950 
	C87.182579,59.470852 87.072311,59.704697 87.038269,59.993084 
	C87.033318,60.009331 87.001450,60.021111 86.764282,60.010658 
	C86.527115,60.000210 86.052765,59.979641 85.783539,59.871658 
	C85.334526,59.692425 85.154747,59.621170 84.974960,59.549911 
	C84.106750,57.392666 83.238541,55.235424 82.132454,52.487137 
	C83.526649,52.324261 84.858597,52.168652 86.590172,52.011963 
z"/>
<path fill="#626167" opacity="1.000000" stroke="none" 
	d="
M87.249573,63.882755 
	C87.033859,63.583408 86.818146,63.284058 86.303131,62.980560 
	C86.003822,62.976414 86.090500,62.950226 86.090500,62.950226 
	C86.060448,62.525234 86.030396,62.100243 86.029724,61.339073 
	C86.059090,61.002892 86.013092,61.062206 86.250763,61.067245 
	C86.488426,61.072281 86.946381,60.942978 87.260246,60.953377 
	C87.991013,60.995438 88.407906,61.027103 88.825974,61.425468 
	C88.922455,62.510174 89.017761,63.228176 88.827881,63.956200 
	C88.352905,63.979397 88.163116,63.992565 87.794037,63.965263 
	C87.614754,63.924789 87.249573,63.882755 87.249573,63.882755 
z"/>
<path fill="#4B5E5A" opacity="1.000000" stroke="none" 
	d="
M87.973328,64.005737 
	C88.163116,63.992565 88.352905,63.979397 89.110901,64.039658 
	C89.865738,64.175400 90.052368,64.237724 90.313889,64.450272 
	C90.550697,64.760475 90.733704,64.890862 91.072105,65.275558 
	C91.423012,66.139626 91.639633,66.719780 91.555595,67.252556 
	C90.862274,67.103317 90.469620,67.001457 90.076958,66.899597 
	C89.560364,66.619446 89.043762,66.339302 88.219582,66.026855 
	C87.911995,65.994553 87.925743,65.552986 87.924187,65.060242 
	C87.939537,64.380249 87.956436,64.192993 87.973328,64.005737 
z"/>
<path fill="#FEFEFD" opacity="1.000000" stroke="none" 
	d="
M83.472794,72.300980 
	C83.466476,71.547417 83.672569,71.012009 83.878662,70.476601 
	C84.153587,70.611122 84.428513,70.745644 84.703445,70.880173 
	C84.364021,71.426491 84.024605,71.972809 83.472794,72.300980 
z"/>
<path fill="#BABABE" opacity="1.000000" stroke="none" 
	d="
M85.015076,59.902908 
	C85.154747,59.621170 85.334526,59.692425 85.770790,60.142471 
	C86.022552,60.701580 86.017822,60.881893 86.013092,61.062206 
	C86.013092,61.062206 86.059090,61.002892 86.090065,61.025299 
	C85.765762,60.783772 85.410477,60.519840 85.015076,59.902908 
z"/>
<path fill="#BABABE" opacity="1.000000" stroke="none" 
	d="
M86.027809,62.937538 
	C85.915756,63.115215 85.779709,63.331764 85.643669,63.548313 
	C85.657356,63.361862 85.671051,63.175411 85.887619,62.969593 
	C86.090500,62.950226 86.003822,62.976414 86.027809,62.937538 
z"/>
<path fill="#989898" opacity="1.000000" stroke="none" 
	d="
M87.794037,63.965263 
	C87.956436,64.192993 87.939537,64.380249 87.873909,64.845154 
	C87.494659,64.978836 87.290062,64.730949 87.230484,64.130943 
	C87.249573,63.882755 87.614754,63.924789 87.794037,63.965263 
z"/>
<path fill="#DA5541" opacity="1.000000" stroke="none" 
	d="
M96.577103,58.115303 
	C96.616943,59.154835 96.484978,60.177536 96.007690,61.749756 
	C95.082939,62.702618 94.503510,63.105961 93.745003,63.269993 
	C93.319954,62.724693 93.073975,62.418701 92.989395,61.858185 
	C93.476303,61.096348 93.801804,60.589035 94.442078,60.045765 
	C95.192505,59.355728 95.628151,58.701656 96.063805,58.047585 
	C96.063805,58.047585 96.405296,58.098476 96.577103,58.115303 
z"/>
<path fill="#E4CDC6" opacity="1.000000" stroke="none" 
	d="
M95.696312,57.980492 
	C95.628151,58.701656 95.192505,59.355728 94.241463,59.790787 
	C93.123444,59.365318 92.520813,59.158871 91.949005,58.728806 
	C91.979828,58.505196 92.120407,58.076187 92.120407,58.076187 
	C92.120407,58.076187 92.606682,58.011417 92.852341,58.000233 
	C93.841606,57.963833 94.585213,57.938614 95.696312,57.980492 
z"/>
<path fill="#FEFEFD" opacity="1.000000" stroke="none" 
	d="
M106.531982,59.552315 
	C106.478424,59.585861 106.585541,59.518772 106.531982,59.552315 
z"/>
<path fill="#FEFEFD" opacity="1.000000" stroke="none" 
	d="
M102.467911,57.448418 
	C102.522636,57.416134 102.413193,57.480705 102.467911,57.448418 
z"/>
<path fill="#FEFEFD" opacity="1.000000" stroke="none" 
	d="
M105.998619,55.001114 
	C105.876282,54.860790 105.755325,54.719353 105.634377,54.577911 
	C105.720695,54.625980 105.807014,54.674046 105.947762,54.859642 
	C106.002182,54.997173 106.000000,55.000000 105.998619,55.001114 
z"/>
<path fill="#4BA4A3" opacity="1.000000" stroke="none" 
	d="
M153.348587,172.416168 
	C160.708603,172.107010 168.382370,172.057922 176.520050,172.062317 
	C169.210098,172.302612 161.436218,172.489441 153.348587,172.416168 
z"/>
<path fill="#83CCC6" opacity="1.000000" stroke="none" 
	d="
M212.950684,174.625214 
	C212.871567,174.814590 212.682541,174.865707 212.215302,174.822723 
	C212.238312,174.648087 212.539551,174.567520 212.950684,174.625214 
z"/>
<path fill="#83CCC6" opacity="1.000000" stroke="none" 
	d="
M209.951782,174.566986 
	C209.880005,174.754578 209.690430,174.810303 209.215210,174.787018 
	C209.231018,174.617065 209.532501,174.526093 209.951782,174.566986 
z"/>
<path fill="#DA5541" opacity="1.000000" stroke="none" 
	d="
M197.026154,115.801819 
	C196.721451,115.359238 196.410446,114.525253 195.991486,113.352676 
	C196.007599,112.578697 196.131668,112.143303 196.255753,111.707909 
	C196.442490,111.684921 196.629211,111.661926 196.815948,111.638939 
	C196.883926,112.896103 196.951904,114.153259 197.026154,115.801819 
z"/>
<path fill="#E2D6CE" opacity="1.000000" stroke="none" 
	d="
M198.523727,116.487411 
	C198.535126,116.514481 198.512329,116.460342 198.523727,116.487411 
z"/>
<path fill="#4B5E5A" opacity="1.000000" stroke="none" 
	d="
M89.090393,172.174011 
	C88.904106,172.138092 88.717812,172.102173 88.261719,171.791534 
	C87.991913,171.516830 88.035049,171.062469 88.035049,171.062469 
	C98.854866,171.137344 109.674690,171.212234 120.758026,171.620178 
	C115.955818,172.010178 110.890099,172.067108 104.903709,172.114807 
	C99.018829,172.128387 94.054611,172.151199 89.090393,172.174011 
z"/>
<path fill="#5AB4B8" opacity="1.000000" stroke="none" 
	d="
M85.528786,172.054169 
	C79.203453,172.281494 72.414360,172.449066 65.308578,172.352631 
	C71.682930,172.057236 78.373978,172.025818 85.528786,172.054169 
z"/>
<path fill="#5AB4B8" opacity="1.000000" stroke="none" 
	d="
M125.601250,172.057495 
	C124.819397,172.267792 123.640671,172.417908 122.232567,172.344299 
	C123.070251,172.079498 124.137314,172.038422 125.601250,172.057495 
z"/>
<path fill="#5AB4B8" opacity="1.000000" stroke="none" 
	d="
M59.743675,171.988037 
	C59.723297,172.133606 59.449837,172.245132 59.081944,172.199341 
	C59.155209,172.012680 59.322903,171.983353 59.743675,171.988037 
z"/>
<path fill="#5AB4B8" opacity="1.000000" stroke="none" 
	d="
M87.787102,171.101593 
	C88.035049,171.062469 87.991913,171.516830 87.981064,171.744354 
	C87.797752,171.967728 87.625298,171.963577 87.194916,171.935623 
	C87.137711,171.654785 87.338432,171.397751 87.787102,171.101593 
z"/>
<path fill="#5AB4B8" opacity="1.000000" stroke="none" 
	d="
M89.402191,172.423706 
	C94.054611,172.151199 99.018829,172.128387 104.433022,172.172821 
	C99.826660,172.384506 94.770317,172.528946 89.402191,172.423706 
z"/>
<path fill="#5AB4B8" opacity="1.000000" stroke="none" 
	d="
M129.160934,172.335266 
	C129.439331,172.091904 129.876801,172.041397 130.642426,172.031525 
	C130.420395,172.224167 129.870209,172.376144 129.160934,172.335266 
z"/>
<path fill="#626167" opacity="1.000000" stroke="none" 
	d="
M93.924072,63.509300 
	C94.503510,63.105961 95.082939,62.702618 95.925903,62.060932 
	C96.436806,62.388161 96.684189,62.953732 96.647095,63.919701 
	C96.455292,64.851280 96.547974,65.382469 96.640656,65.913658 
	C97.031853,66.111252 97.423065,66.308846 97.914825,66.824715 
	C97.566566,67.087219 97.117760,67.031456 96.333542,67.026154 
	C95.204163,67.310936 94.410194,67.545258 93.452957,68.081383 
	C93.055290,68.309082 92.820885,68.234985 92.196037,67.931580 
	C91.805595,67.702278 91.856255,67.299934 91.856255,67.299934 
	C91.639633,66.719780 91.423012,66.139626 91.380890,65.278641 
	C92.260971,64.735344 92.966568,64.472885 93.755058,64.041069 
	C93.837959,63.871712 93.924072,63.509300 93.924072,63.509300 
z"/>
<path fill="#FEFEFD" opacity="1.000000" stroke="none" 
	d="
M99.786636,70.014450 
	C100.253418,70.218643 100.449554,70.439705 100.852448,70.767532 
	C100.425507,71.262772 99.820007,71.626198 99.214508,71.989632 
	C99.305603,71.345207 99.396698,70.700775 99.786636,70.014450 
z"/>
<path fill="#55BFBA" opacity="1.000000" stroke="none" 
	d="
M124.191391,64.605614 
	C125.553986,64.150208 126.839279,64.059128 128.515945,63.946220 
	C132.091095,66.841553 131.209549,73.291138 127.375877,74.678680 
	C126.165932,75.116592 124.819923,75.178574 123.277145,75.678253 
	C122.632553,74.204353 121.781548,72.408897 121.982079,70.739777 
	C122.219971,68.759697 123.363205,66.888390 124.191391,64.605614 
z"/>
<path fill="#2F3D48" opacity="1.000000" stroke="none" 
	d="
M96.765045,65.639954 
	C96.547974,65.382469 96.455292,64.851280 96.589523,64.244781 
	C96.840767,64.568405 96.865097,64.967323 96.765045,65.639954 
z"/>
<path fill="#F3F3F3" opacity="1.000000" stroke="none" 
	d="
M91.555595,67.252556 
	C91.856255,67.299934 91.805595,67.702278 91.828323,67.903961 
	C91.851044,68.105637 91.698814,68.537338 91.713326,68.765190 
	C91.057350,68.989311 90.386864,68.985588 89.374786,68.979874 
	C89.181908,68.371422 89.330635,67.764954 89.778152,67.029037 
	C90.469620,67.001457 90.862274,67.103317 91.555595,67.252556 
z"/>
<path fill="#F3F3F3" opacity="1.000000" stroke="none" 
	d="
M87.876991,56.976665 
	C84.672409,54.913837 88.271568,55.195873 88.947784,54.171249 
	C89.744446,54.473064 90.356018,55.010376 91.123314,55.818043 
	C91.279037,56.088398 91.107338,56.390659 90.752411,56.630386 
	C89.996384,56.947895 89.595268,57.025677 88.871254,57.005405 
	C88.324562,56.930462 88.100777,56.953564 87.876991,56.976665 
z"/>
<path fill="#EE786E" opacity="1.000000" stroke="none" 
	d="
M89.194160,57.103455 
	C89.595268,57.025677 89.996384,56.947895 90.698242,56.795532 
	C91.287498,56.991909 91.576012,57.262863 91.992462,57.805000 
	C92.120407,58.076187 91.979828,58.505196 91.663925,58.750816 
	C90.621758,58.799328 89.895508,58.602219 89.169769,58.079590 
	C89.178253,57.537197 89.186211,57.320324 89.194160,57.103455 
z"/>
<path fill="#A7A8A9" opacity="1.000000" stroke="none" 
	d="
M111.329819,161.961914 
	C110.996742,161.218918 110.997910,160.490601 110.997986,159.398224 
	C111.552299,159.185303 112.107719,159.336441 112.836212,159.724792 
	C113.006599,160.410446 113.003922,160.858871 113.001686,161.642853 
	C112.556107,161.977798 112.110077,161.977219 111.329819,161.961914 
z"/>
<path fill="#989898" opacity="1.000000" stroke="none" 
	d="
M120.013222,160.762360 
	C119.899422,160.591766 119.954979,160.419708 120.010544,160.247650 
	C120.067894,160.418732 120.125237,160.589798 120.013222,160.762360 
z"/>
<path fill="#B4A6A2" opacity="1.000000" stroke="none" 
	d="
M128.992950,169.990753 
	C129.087646,169.952667 129.189499,169.923538 129.154663,169.954147 
	C129.017975,170.013885 129.000092,169.999710 128.992950,169.990753 
z"/>
<path fill="#A7A8A9" opacity="1.000000" stroke="none" 
	d="
M152.095642,161.207062 
	C152.867523,160.494690 153.752655,160.005508 154.822617,159.263947 
	C163.850037,157.988007 172.698730,156.567780 181.741791,159.954941 
	C182.001358,160.660156 182.000687,160.830383 182.000000,161.000610 
	C181.555298,161.000107 181.110596,160.999603 180.332336,161.000153 
	C171.211151,159.438354 162.510437,160.154922 153.430710,162.003906 
	C152.742126,161.816620 152.475510,161.623444 152.095642,161.207062 
z"/>
<path fill="#AAA9A9" opacity="1.000000" stroke="none" 
	d="
M173.780365,170.688873 
	C173.227661,170.951019 172.499603,170.971161 171.408661,170.959900 
	C171.898865,170.767975 172.751938,170.607407 173.780365,170.688873 
z"/>
<path fill="#AAA9A9" opacity="1.000000" stroke="none" 
	d="
M182.206039,161.261993 
	C182.000687,160.830383 182.001358,160.660156 182.004822,160.234375 
	C182.755630,159.986588 183.503647,159.994400 184.625839,160.001404 
	C184.999847,160.442047 184.999680,160.883469 184.998535,161.655716 
	C184.135727,161.832138 183.273911,161.677750 182.206039,161.261993 
z"/>
<path fill="#A7A8A9" opacity="1.000000" stroke="none" 
	d="
M188.144531,162.225067 
	C188.443375,162.000000 188.887512,162.000610 189.664673,162.001404 
	C189.428421,162.151306 188.859116,162.301010 188.144531,162.225067 
z"/>
<path fill="#989898" opacity="1.000000" stroke="none" 
	d="
M88.871254,57.005405 
	C89.186211,57.320324 89.178253,57.537197 89.172508,58.295433 
	C89.166656,59.124596 89.155403,59.412270 89.077179,60.043110 
	C88.950539,60.610516 88.887672,60.834641 88.824806,61.058769 
	C88.407906,61.027103 87.991013,60.995438 87.282700,60.723728 
	C86.991287,60.483685 87.001450,60.021111 87.001450,60.021111 
	C87.001450,60.021111 87.033318,60.009331 87.235275,59.910366 
	C87.699875,59.615021 87.785172,59.359421 87.693138,59.044598 
	C87.735474,58.586090 87.777809,58.127579 87.848564,57.322868 
	C88.100777,56.953564 88.324562,56.930462 88.871254,57.005405 
z"/>
<path fill="#F3F3F3" opacity="1.000000" stroke="none" 
	d="
M86.764282,60.010658 
	C87.001450,60.021111 86.991287,60.483685 86.968834,60.713333 
	C86.946381,60.942978 86.488426,61.072281 86.250763,61.067245 
	C86.017822,60.881893 86.022552,60.701580 86.040024,60.250454 
	C86.052765,59.979641 86.527115,60.000210 86.764282,60.010658 
z"/>
<path fill="#F3F3F3" opacity="1.000000" stroke="none" 
	d="
M87.533585,59.159950 
	C87.785172,59.359421 87.699875,59.615021 87.240234,59.894119 
	C87.072311,59.704697 87.182579,59.470852 87.533585,59.159950 
z"/>
<path fill="#D6C274" opacity="1.000000" stroke="none" 
	d="
M88.825974,61.425468 
	C88.887672,60.834641 88.950539,60.610516 89.229858,60.261234 
	C89.610374,60.446270 89.774429,60.756462 89.959396,61.368111 
	C90.346397,62.116577 90.712509,62.563591 91.046860,63.254784 
	C91.015114,63.498962 90.996735,63.991093 90.799606,64.049477 
	C90.602486,64.107857 90.238998,64.300056 90.238998,64.300056 
	C90.052368,64.237724 89.865738,64.175400 89.396088,64.029633 
	C89.017761,63.228176 88.922455,62.510174 88.825974,61.425468 
z"/>
<path fill="#4BA4A3" opacity="1.000000" stroke="none" 
	d="
M90.313889,64.450272 
	C90.238998,64.300056 90.602486,64.107857 91.137497,64.074158 
	C92.339058,64.097115 93.005608,64.153770 93.672157,64.210426 
	C92.966568,64.472885 92.260971,64.735344 91.246597,64.994728 
	C90.733704,64.890862 90.550697,64.760475 90.313889,64.450272 
z"/>
<path fill="#F3F3F3" opacity="1.000000" stroke="none" 
	d="
M89.938492,61.066654 
	C89.774429,60.756462 89.610374,60.446270 89.293640,59.917950 
	C89.155403,59.412270 89.166656,59.124596 89.171989,58.620956 
	C89.895508,58.602219 90.621758,58.799328 91.633102,58.974426 
	C92.520813,59.158871 93.123444,59.365318 93.926682,59.826748 
	C93.801804,60.589035 93.476303,61.096348 92.822021,61.833710 
	C92.493248,62.063755 92.154358,62.100517 91.872940,61.975407 
	C91.040504,61.589081 90.489502,61.327866 89.938492,61.066654 
z"/>
<path fill="#989898" opacity="1.000000" stroke="none" 
	d="
M92.154358,62.100517 
	C92.154358,62.100517 92.493248,62.063755 92.660622,62.088234 
	C93.073975,62.418701 93.319954,62.724693 93.745003,63.269993 
	C93.924072,63.509300 93.837959,63.871712 93.755058,64.041069 
	C93.005608,64.153770 92.339058,64.097115 91.334625,64.015778 
	C90.996735,63.991093 91.015114,63.498962 91.263756,63.152439 
	C91.801979,62.639622 92.015968,62.404488 92.154358,62.100517 
z"/>
<path fill="#E4CDC6" opacity="1.000000" stroke="none" 
	d="
M91.872940,61.975407 
	C92.015968,62.404488 91.801979,62.639622 91.295502,62.908257 
	C90.712509,62.563591 90.346397,62.116577 89.959396,61.368111 
	C90.489502,61.327866 91.040504,61.589081 91.872940,61.975407 
z"/>
</svg>